<svg id="Layer_1" data-name="Layer 1" xmlns="http://www.w3.org/2000/svg" viewBox="0 0 1097.32 238.54"><path d="M229.86,156.41l.42,8a2.4,2.4,0,0,1-1.94,2.48,72.24,72.24,0,0,1-10.88,1.37c-14.56,0-19-5.57-19-23.82V116.5h-5.59a2.41,2.41,0,0,1-2.4-2.41v-8.25a2.4,2.4,0,0,1,2.4-2.39h5.59V93.64a2.41,2.41,0,0,1,1.82-2.33L209.94,89a2.39,2.39,0,0,1,2.92,1.71,2.15,2.15,0,0,1,.08.62v12.16h14.72a2.4,2.4,0,0,1,2.39,2.39v8.25a2.4,2.4,0,0,1-2.39,2.41H212.9v25.85c0,8.94.32,12,6.59,12,2.31,0,5.94-.15,7.88-.26a2.4,2.4,0,0,1,2.49,2.31Zm-45.59-21.66c0,23-8.75,33.31-28.36,33.31s-28.51-10.31-28.51-33.31c0-22.7,8.79-32.82,28.51-32.82C175.26,101.93,184.27,112.35,184.27,134.75Zm-14.69,0c0-14.14-3.84-19.64-13.67-19.64-10.2,0-13.78,5.13-13.78,19.64,0,13.16,2.2,20.27,13.82,20.27C167.34,155,169.58,147.59,169.58,134.75Zm230.35-30.37a2.37,2.37,0,0,0-1.88-.93h-9.38a2.42,2.42,0,0,0-2.31,1.78L373.8,152.61h-1l-12.55-47.38a2.39,2.39,0,0,0-2.32-1.78h-9.36a2.4,2.4,0,0,0-2.41,2.38,2.57,2.57,0,0,0,.08.62l13.83,53.14c.7,2.63,3.13,7.09,7.95,7.09h2.68c-.23.89-.47,1.84-.73,2.65l-.13.41c-.75,2.45-1.88,6.15-8.72,6.15l-12-.73a2.39,2.39,0,0,0-1.83.67,2.42,2.42,0,0,0-.72,1.83l.3,6.26a2.36,2.36,0,0,0,1.82,2.22,89.65,89.65,0,0,0,15.81,2.1h.76c9,0,15.15-5.84,18.24-17.34,3.58-13.48,8.07-30.8,11.35-43.46l3.67-14.11,1.8-6.89A2.31,2.31,0,0,0,399.93,104.38ZM118.6,163.32a2.46,2.46,0,0,1-.18,2.28,2.43,2.43,0,0,1-2,1.08H105.19a2.36,2.36,0,0,1-2.19-1.43L88.64,133c-7.14,0-13.34-.43-16.69-.67v32a2.38,2.38,0,0,1-2.38,2.4h-10a2.4,2.4,0,0,1-2.43-2.39h0v-81a2.4,2.4,0,0,1,2.14-2.38,251.26,251.26,0,0,1,27-1.61h2c24.66,0,29.86,14.57,29.86,26.77,0,10.19-4.86,17.56-14.87,22.53ZM88.21,93.19H82.92a59.64,59.64,0,0,0-11,.78v25c2.82.2,8.26.48,15.55.4,9.42-.09,15.28-5.09,15.28-13C102.78,100,99,93.19,88.21,93.19Zm200.6,30.15v41.92a2.4,2.4,0,0,1-2.41,2.41l-.27,0a17.92,17.92,0,0,1-9.57-4c-.1,0-10.94,4.42-20.65,4.42-11.67,0-18.37-7.37-18.37-20.25,0-12.58,6.14-18.15,21.17-19.28l15.71-1.25v-3.82c0-4.82-2.88-7.59-7.87-7.59-6.88,0-16.7.8-21.92,1.27a2.38,2.38,0,0,1-1.82-.58,2.45,2.45,0,0,1-.82-1.7l-.3-8a2.39,2.39,0,0,1,2-2.47c4.68-.74,16.35-2.44,23.63-2.44,14.65,0,21.49,6.79,21.49,21.38Zm-28.39,16c-5.67.54-8.35,3.13-8.35,8.12,0,3.08.83,8.26,6.45,8.26,6.68,0,15.74-2.53,15.85-2.55V138.55ZM335.69,103c-6.37.38-12.66,4-16.57,6.81v-4a2.39,2.39,0,0,0-2.39-2.39h-9.66a2.41,2.41,0,0,0-2.42,2.38h0v58.44a2.4,2.4,0,0,0,2.4,2.4h9.66a2.39,2.39,0,0,0,2.41-2.39h0V123.89c2.17-1.82,8.91-6.87,16.94-7.57a2.4,2.4,0,0,0,2.18-2.4v-8.56a2.4,2.4,0,0,0-2.42-2.39h-.13Z" transform="translate(0 -13.03)" fill="#1a468e"/><path d="M650.13,127v-.31l-.24-.14a35.08,35.08,0,0,0-17-4.61c-.12-.8-.88-6.48-1-7.29a34.69,34.69,0,0,0,15.24-8.85l.21-.19-.06-.31a32.73,32.73,0,0,0-1.86-7L645.3,98,645,97.9a34.9,34.9,0,0,0-17.58,0c-.28-.75-2.44-6-2.75-6.72a35.68,35.68,0,0,0,12.38-12.43l.14-.23-.07-.27a35.67,35.67,0,0,0-3.6-6.25l-.17-.24H633a35.5,35.5,0,0,0-17,4.47c-.48-.66-4-5.23-4.47-5.87a35.08,35.08,0,0,0,8.8-15.22l.08-.3-.21-.23a32.81,32.81,0,0,0-5.11-5.16l-.22-.17h-.31a35.62,35.62,0,0,0-15.22,8.78c-.66-.51-5.22-4.08-5.88-4.62A34.38,34.38,0,0,0,598.13,37v-.74L597.9,36a29.82,29.82,0,0,0-6.29-3.63l-.26-.1-.25.13a35.1,35.1,0,0,0-12.46,12.32c-.78-.3-6.33-2.63-7.06-3a36.47,36.47,0,0,0,1.19-8.89,29.93,29.93,0,0,0-1.19-8.66l-.07-.28-.29-.11a31.91,31.91,0,0,0-6.93-1.9l-.33-.05-.19.2A35.22,35.22,0,0,0,555,37.28c-.82-.14-6.56-.85-7.43-.94a34.65,34.65,0,0,0-4.56-17l-.14-.15h-.3a32.46,32.46,0,0,0-7.24,0H535l-.14.27a35.07,35.07,0,0,0-4.55,16.94c-.83.11-6.66.82-7.5,1A35.06,35.06,0,0,0,514,22.15l-.22-.22h-.32a35,35,0,0,0-6.95,1.86l-.28.12-.11.28A33.71,33.71,0,0,0,504.94,33a38.93,38.93,0,0,0,1.19,8.8c-.73.31-6.33,2.72-7.08,3a35.57,35.57,0,0,0-12.41-12.42l-.26-.16-.31.11a37.79,37.79,0,0,0-6.24,3.64l-.26.16v.8a35,35,0,0,0,4.56,16.6c-.63.52-4.84,3.82-5.48,4.33A35.41,35.41,0,0,0,463.42,49l-.28-.06-.21.2a31.51,31.51,0,0,0-5.17,5.09l-.19.24.07.29A35.54,35.54,0,0,0,466.41,70c-.46.64-4.13,5.42-4.64,6.08a34.84,34.84,0,0,0-17-4.59h-.28l-.18.25A34.67,34.67,0,0,0,440.68,78l-.12.26.15.28A35.74,35.74,0,0,0,453.13,91c-.28.74-2.41,5.92-2.73,6.67a34.79,34.79,0,0,0-17.61,0l-.29.07-.1.26a32.82,32.82,0,0,0-1.9,7v.3l.21.24a34.55,34.55,0,0,0,15.23,8.73c-.12.82-.87,6.56-1,7.34a35.31,35.31,0,0,0-17,4.56l-.27.15v.3a33.79,33.79,0,0,0,0,7.25v.29l.27.14a34.75,34.75,0,0,0,17,4.55c.12.83.93,6.72,1,7.53a35.75,35.75,0,0,0-15.2,8.86l-.21.25v.27a35.15,35.15,0,0,0,1.89,7l.12.26.27.1a35.06,35.06,0,0,0,17.62,0c.3.74,2.58,6,2.9,6.71a35.59,35.59,0,0,0-12.42,12.39l-.13.27.1.28a34.3,34.3,0,0,0,3.64,6.26l.18.24H445a35,35,0,0,0,17-4.5c.5.62,4.09,5.3,4.56,5.94a35,35,0,0,0-8.8,15.2l-.07.28.18.24a37,37,0,0,0,5.1,5.14l.24.21.29-.1A34.91,34.91,0,0,0,478.72,203c.66.52,5.31,4.09,6,4.6a36.09,36.09,0,0,0-4.53,16.7v.61l.27.21a36.9,36.9,0,0,0,6.23,3.62l.27.1.29-.14a35.11,35.11,0,0,0,12.46-12.47l6.58,2.67a35.84,35.84,0,0,0-1.16,8.8,31.54,31.54,0,0,0,1.19,8.76l.06.29.3.11a33.5,33.5,0,0,0,7,1.93H514l.21-.24a34.08,34.08,0,0,0,8.72-15.2c.84.14,6.72,1,7.54,1.06a34.77,34.77,0,0,0,4.59,16.93l.12.26h.33a32.37,32.37,0,0,0,7.23,0H543l.15-.26a35.66,35.66,0,0,0,4.6-17l7.14-1a34.57,34.57,0,0,0,8.79,15.24l.22.2h.27a36,36,0,0,0,7-1.87l.26-.13.09-.27a31.6,31.6,0,0,0,1.14-8.76,37.1,37.1,0,0,0-1.14-8.89c.76-.29,6.09-2.6,6.84-2.93a35.73,35.73,0,0,0,12.42,12.44l.24.12.29-.11a31.34,31.34,0,0,0,6.29-3.65l.23-.14v-.81a36.17,36.17,0,0,0-4.5-16.53c.64-.5,5-3.92,5.67-4.43a36,36,0,0,0,15.27,8.79l.28.08.22-.2a36,36,0,0,0,5.15-5.1l.2-.26-.1-.26a35.12,35.12,0,0,0-8.73-15.25c.49-.65,4-5.32,4.52-6a34.72,34.72,0,0,0,17,4.49h.3l.18-.22a28.59,28.59,0,0,0,3.63-6.3l.12-.25-.14-.27a36.45,36.45,0,0,0-12.3-12.48c.3-.74,2.41-5.89,2.72-6.63a33.91,33.91,0,0,0,17.55,0l.26-.09.12-.26a33.73,33.73,0,0,0,1.91-7v-.3L647,155a34.75,34.75,0,0,0-15.15-8.78c.13-.8.91-6.32,1-7.13a34.94,34.94,0,0,0,17-4.58l.24-.16v-.31a38.62,38.62,0,0,0,.07-7.12Zm-111.21,86.3a83.5,83.5,0,1,1,83.48-83.52v0A83.59,83.59,0,0,1,538.92,213.25Z" transform="translate(0 -13.03)" fill="#f7a81b"/><path d="M538.92,56.3a73.46,73.46,0,1,0,73.45,73.47v0A73.53,73.53,0,0,0,538.92,56.3Zm9.21,11.81a2.94,2.94,0,0,1,2.57-.2c14.76,3.57,25.59,9.8,36.17,20.92A3.46,3.46,0,0,1,588,91v.26c-.22,1-1.35,1.55-2.36,2l-30.9,15a3.3,3.3,0,0,1-3.25.07,3.44,3.44,0,0,1-1.58-2.86l-2.49-34.23C547.35,69.62,547.57,68.61,548.13,68.11Zm-57.37,21C501.33,78,512.15,71.74,526.91,68.2a2.85,2.85,0,0,1,2.54.21c.63.48.84,1.49.73,3.13l-2.45,34.21a3.12,3.12,0,0,1-4.8,2.79l-30.88-15c-1-.5-2.19-1-2.39-2a3.12,3.12,0,0,1,1.13-2.45Zm-7.33,63.44c-1.34.92-2.33,1.25-3.09,1s-1.12-1.22-1.39-2.13c-4.37-14.58-4.37-27.08-.05-41.78.37-1.26.9-2,1.57-2.2,1-.36,2,.37,3,1l28.38,19.31a3.38,3.38,0,0,1,1.7,2.78,3.53,3.53,0,0,1-1.66,2.77Zm46.6,40.2a2.87,2.87,0,0,1-2.57.14c-14.75-3.52-25.6-9.76-36.15-20.89a3.33,3.33,0,0,1-1.14-2.13,1.6,1.6,0,0,1,0-.31c.14-1,1.33-1.54,2.33-2l30.9-15a3.16,3.16,0,0,1,4.35,1,3.06,3.06,0,0,1,.48,1.79l2.5,34.3c.16,1.59-.08,2.59-.67,3.11Zm8.8-42.76a20.07,20.07,0,0,1-11-36.82,4.05,4.05,0,1,1,4.47,6.76h0a12,12,0,1,0,16.62,3.47,12.2,12.2,0,0,0-3.47-3.47,4.05,4.05,0,0,1,4.47-6.76,20.07,20.07,0,0,1-11,36.83Zm48.08,21.61c-10.53,11.08-21.31,17.32-36.15,20.88a3,3,0,0,1-2.66-.23c-.78-.65-.68-2-.6-3.08L550,154.92a3.65,3.65,0,0,1,1.62-2.9,3.55,3.55,0,0,1,3.22.1l30.91,15c1.45.71,2.22,1.41,2.37,2.18s-.45,1.57-1.14,2.28Zm10.42-64.34c.83.28,1.16,1.2,1.41,2.11,4.35,14.59,4.35,27.08,0,41.79-.35,1.26-.86,2-1.53,2.23-1,.3-2-.4-2.92-1.06l-28.42-19.28a3.44,3.44,0,0,1-1.73-2.79,3.54,3.54,0,0,1,1.73-2.79l28.42-19.27c1.31-.94,2.32-1.23,3.07-1Z" transform="translate(0 -13.03)" fill="#f7a81b"/><path d="M1047.08,182.33V207c0,5.4.16,10.79-.17,16.18-.59,9.81-6.14,15.79-16.25,17.69a39.69,39.69,0,0,1-19.59-1.4c-1.67-.54-2.27-1.16-2-2.87.41-2.28.51-4.61.75-7,20.34,8.4,26.45-.86,25.5-11.62a18,18,0,0,1-16.69,5.49c-8-1.29-12.82-6.53-14.14-15.59-.87-5.87-.42-11.65,2.45-17.09,5.69-10.78,19.08-12.91,28-4.43a7,7,0,0,0,1,.63c.08-1.62.14-3,.22-4.64Zm-31.53,20c1.07,3,1.65,6.31,3.32,9a8.52,8.52,0,0,0,11.27,3,8.07,8.07,0,0,0,3.29-3.26,16.44,16.44,0,0,0,0-17.08,8.75,8.75,0,0,0-11.52-3.23,8.25,8.25,0,0,0-3.32,3.09C1017.14,196.19,1016.64,199.16,1015.55,202.3Z" transform="translate(0 -13.03)" fill="#1a4a8f"/><path d="M1097.22,156.3h-11.61v-3.61c-.07-7.87.08-15.74-.3-23.6-.25-5.14-3.93-7.75-8.94-6.28a10.12,10.12,0,0,0-5.65,4.54,21.18,21.18,0,0,0-1.93,8.76c-.27,6.6-.08,13.22-.08,20h-11.39v-60h11.19v23.32c1.19-.8,1.82-1.15,2.37-1.6a17.64,17.64,0,0,1,17.62-3c6.18,2.13,8.43,7.2,8.65,12.81C1097.49,137.11,1097.22,146.54,1097.22,156.3Z" transform="translate(0 -13.03)" fill="#0aa5e1"/><path d="M913.31,223.61H902.24v-8.09c-.09-6.41-.07-12.81-.36-19.2-.13-3-1.51-5.51-4.92-6.24s-7.16-.17-8.65,3a35.34,35.34,0,0,0-3.17,11.81c-.52,6.11-.13,12.3-.13,18.64H873.88V163.6H885v23.87c4.14-4.17,8.54-6.3,14.13-6.19,7.67.16,13.49,4,14,11.18C913.82,202.71,913.31,213,913.31,223.61Z" transform="translate(0 -13.03)" fill="#1d4c91"/><path d="M887.81,115.18a5.25,5.25,0,0,1,1-.32c3.67,0,8.2-1.19,10.75.42s3,6,4.16,9.21c2.34,6.46,4.54,13,7.08,20.28.77-2.07,1.3-3.43,1.78-4.8,2.63-7.57,5.29-15.12,7.83-22.71.58-1.74,1.36-2.62,3.46-2.48,2.85.18,5.66,0,8.89,0-.29,1-.44,1.86-.72,2.63q-8.61,21.72-17.27,43.42c-.2.53-.41,1.05-.65,1.56-4.71,10.7-11.39,13.74-23.63,10.53l.6-7.9c1.71.21,3.18.47,4.65.58,6.28.44,9.82-3.89,7.69-9.48q-7-18.34-14.06-36.66C888.85,118.15,888.39,116.77,887.81,115.18Z" transform="translate(0 -13.03)" fill="#06a3e1"/><path d="M933.62,105.39c.23-2.63.45-5.06.71-7.63,2,.19,3.78.48,5.52.47,5.78,0,8.82-4.2,6.85-9.34q-7.25-19-14.54-38c-.39-1-.72-2-1.23-3.56,4,0,7.67-.16,11.27.11.83.06,1.88,1.48,2.23,2.46,2.74,7.64,5.34,15.32,8,23,.43,1.24.92,2.48,1.65,4.45,3.15-9,6.3-17.23,8.8-25.62,1.08-3.64,2.8-5,6.6-4.47a50.37,50.37,0,0,0,6.16,0,5.84,5.84,0,0,1,0,1.77c-6.31,15.84-12.48,31.74-19.06,47.48C952.63,106,944.05,109.12,933.62,105.39Z" transform="translate(0 -13.03)" fill="#f5a921"/><path d="M952.78,157.16c-13.78,0-22.79-8.45-22.83-21.34s9.26-21.92,22.78-21.95c13.75,0,23,8.9,23,22.09C975.72,148.77,966.62,157.16,952.78,157.16ZM964,135.51c-.35-2-.51-3.66-1-5.27-1.38-5-5-7.7-10.17-7.71s-9.36,2.75-10.09,7.71a32.73,32.73,0,0,0,.71,12.19c1,4.21,5,6.47,9.36,6.37s7.78-2,9.3-6.07A57.21,57.21,0,0,0,964,135.51Z" transform="translate(0 -13.03)" fill="#05a3e1"/><path d="M828.11,68.4c0,13.07-9.25,21.78-23,21.62s-22.7-8.9-22.65-21.71,9.44-21.91,22.92-21.87C819.09,46.52,828.11,55.23,828.11,68.4Zm-11.45,0-.42-.15c-.09-1.22-.13-2.46-.29-3.68-.72-5.35-4.46-9-9.46-9.4-5.76-.42-9.75,2.35-11.33,8a17.86,17.86,0,0,0,1.34,13.1c1.74,3.46,4.82,5.15,8.85,5.12,3.8,0,7.12-1.35,8.68-4.77A62.86,62.86,0,0,0,816.66,68.36Z" transform="translate(0 -13.03)" fill="#f5a920"/><path d="M887.42,63.29c-.16-6.07-2.46-8.9-8.26-8.58-4.9.26-9.72,1.92-15,3a57.32,57.32,0,0,1,.1-6.81,3.43,3.43,0,0,1,2.07-2.19,37.92,37.92,0,0,1,20.55-1.55c7,1.5,10.83,6.14,11.15,14.5.33,8.93.08,17.88.08,27h-9.48c-.17-1.55-.34-3-.54-4.84-.94.68-1.63,1.16-2.25,1.71-5.1,4.49-11,5.39-17.44,3.32-6-1.91-9.11-6.07-9.12-11.5,0-6,3-10.5,9-12.32a61.42,61.42,0,0,1,11.11-1.78C882,63.07,884.56,63.29,887.42,63.29ZM887.34,70c-4.68-.1-9.4-.68-13.8,1.57a5.44,5.44,0,0,0-3,6.27c.47,2.69,2.68,3.48,5.17,3.77,7.24.87,12.06-3.81,11.66-11.59Z" transform="translate(0 -13.03)" fill="#f5a921"/><path d="M1000,223.61H988.78V220c0-7.41,0-14.83-.14-22.24-.12-4.72-2.14-7.24-5.7-7.8-4.2-.68-8,1.18-9.49,5.39a32.61,32.61,0,0,0-1.76,9.51c-.25,6.16-.07,12.33-.07,18.69H960.39V182.28h10.43c.12,1.49.23,2.9.4,4.87a19,19,0,0,1,14.36-5.88c8,.19,13.8,4.26,14.24,11.75C1000.45,203.08,1000,213.18,1000,223.61Z" transform="translate(0 -13.03)" fill="#1b4b90"/><path d="M793.77,206.41H764.24c.35,6,4.55,10.28,10.77,9.94,5.29-.29,10.5-1.8,15.91-2.8a51,51,0,0,1-.09,6.3,3.49,3.49,0,0,1-1.9,2.36c-7.83,3.09-15.95,3.61-23.85.59-12.3-4.72-16.37-22.29-8.05-33.94a17.66,17.66,0,0,1,14.35-7.51c13.87-.54,21,5.47,22.36,18.88C793.94,202.09,793.77,204,793.77,206.41Zm-10.94-7.69c-.65-6.46-3.66-9.5-9.22-9.4s-8.91,3.5-9.43,9.4Z" transform="translate(0 -13.03)" fill="#1a4a8f"/><path d="M922.37,193.6c-.71-10.95-2.47-9.29,8.15-11.62a38.46,38.46,0,0,1,10.22-.56c9.15.49,14.45,5,15,13.65.53,9.38.12,18.81.12,28.43h-9.35c-.2-1.5-.42-3.12-.71-5.15-4,4.39-8.85,6.64-14.91,6.25-7.46-.5-13-4.93-13.79-11.3-.82-6.52,3.16-12.25,10.63-13.86,5.58-1.2,11.43-1.31,17.26-1.93.71-4.55-1.69-7.51-6.91-8.09C932.38,188.77,927.39,190.61,922.37,193.6ZM945.12,204c-4.67.76-9.11,1.15-13.33,2.29-2.84.78-4.08,3.37-3.56,6.24s2.95,3.83,5.76,4c7.17.44,11.5-4,11.13-12.54Z" transform="translate(0 -13.03)" fill="#1b4b90"/><path d="M1092.21,206.33h-29.5a9.19,9.19,0,0,0,9.58,10c4.37,0,8.74-1.35,13.08-2.22a22.37,22.37,0,0,0,3.56-1.48c0,2.79.14,5.13-.08,7.41a3.09,3.09,0,0,1-1.66,2.12c-8.6,3.37-17.25,3.66-25.76-.18a15.14,15.14,0,0,1-4.75-3.46c-6.54-7.06-6.65-15.35-4.27-23.8,1.94-6.92,6.66-11.77,14.31-13,13.14-2.06,22.78,2.45,25,16.73C1092,201,1092,203.55,1092.21,206.33Zm-29.83-7.63h18.56c-.36-6-3.36-9.21-8.54-9.38-5.79-.18-9.36,3.08-10,9.38Z" transform="translate(0 -13.03)" fill="#194a8f"/><path d="M979.48,115H990.8c0,6.82,0,13.52,0,20.22a63.79,63.79,0,0,0,.47,7.7c.4,3.06,2.06,5.27,5.49,5.79s6.49-.39,8-3.15a23.56,23.56,0,0,0,3-9.48c.43-6.92.13-13.87.13-21h11.3v41.09h-10.56v-5.21c-4.21,4-8.55,6.33-14.11,6.29-8.67-.07-14.43-4.39-14.86-12.61C979.08,134.84,979.48,125.07,979.48,115Z" transform="translate(0 -13.03)" fill="#03a3e0"/><path d="M837.84,182.1c-4.12,6.23-7.72,11.86-11.54,17.35-1.32,1.89-1.24,3.19.09,5.06,4.36,6.11,8.47,12.39,13.07,19.2-4.63,0-8.68.12-12.72-.1-.85-.05-1.83-1.21-2.4-2.07-2.75-4.15-5.38-8.37-8.34-13-2.65,4.15-5.19,7.9-7.44,11.79-1.43,2.5-3.09,3.91-6.36,3.48a68.47,68.47,0,0,0-8.44-.07c.71-1.19,1.25-2.1,1.84-3,3.81-5.53,7.58-11.1,11.52-16.55a3.26,3.26,0,0,0,0-4.47c-4-5.65-7.83-11.4-12.11-17.63,4.46,0,8.31-.11,12.11.08a4.05,4.05,0,0,1,2.6,1.73c2.49,3.63,4.8,7.38,7.47,11.55,2.44-3.92,4.77-7.42,6.81-11a4.21,4.21,0,0,1,4.49-2.38C831.33,182.22,834.17,182.1,837.84,182.1Z" transform="translate(0 -13.03)" fill="#1c4b90"/><path d="M834.8,47.54c.28-3.18-.48-6.94,1-8,2.84-2,6.9-2.61,11-4V47.15h9.82v8.38H847.1c0,7.52-.15,14.56.07,21.58.09,2.92,2.28,4.3,5.36,4.14,1.42-.07,2.78-.33,4.71-.58q.24,4,.46,7.89c-13.24,4.22-23.06-1-22.58-13.48.25-6.37,0-12.75,0-19.39h-8V47.54Z" transform="translate(0 -13.03)" fill="#f5ab27"/><path d="M1042.53,114.83h9.9v7.87h-9.64c0,7.61-.2,14.83.1,22.1.12,2.87,2.81,4.35,5.93,4,1.27-.15,2.52-.5,4.16-.83.14,2.79.27,5.42.39,8-14.39,4.05-22.15-1.17-22.47-12.08-.06-2.14,0-4.27,0-6.41V122.9h-8v-8h8a45.36,45.36,0,0,1,.09-6.17,3.86,3.86,0,0,1,1.79-2.7c3-1.16,6.25-2,9.77-3Z" transform="translate(0 -13.03)" fill="#08a4e1"/><path d="M868.9,214.31c.16,3.08.3,5.84.44,8.53-6.5,3-21.36,2.77-27.48-4.22-6.48-7.42-7.39-21.05-1.51-29.38,5.44-7.71,16.47-9.85,28.23-6.42l-1,8.27c-6.34-1.64-12.45-2.76-16.78,3.28-3.47,4.84-3.25,13.43.49,17.83C856.14,217.85,862.23,216.2,868.9,214.31Z" transform="translate(0 -13.03)" fill="#1b4a90"/><path d="M914,88.81H902.79V47.62h9.81V54c4-5,8.18-8.66,15.43-7.2V57.54c-.87-.13-1.65-.27-2.44-.36-6.41-.68-10,1.66-10.78,7.83-.68,5.43-.57,10.94-.75,16.42C914,83.77,914,86.11,914,88.81Z" transform="translate(0 -13.03)" fill="#f5a81f"/><path d="M781.59,46.83V57.31c-.2.08-.4.24-.56.22-8.44-1.41-11.87.58-13,8.61-.75,5.53-.44,11.2-.58,16.81-.05,1.88,0,3.76,0,5.81H756.34V47.57h9.74v8C769.77,49.13,774.07,45.35,781.59,46.83Z" transform="translate(0 -13.03)" fill="#f5a920"/><rect x="694.9" width="1.96" height="238.54" fill="#939598"/><text transform="translate(0 221.52)" font-size="36" fill="#1a468e" font-family="NeoSansPro-Light, Neo Sans Pro" font-weight="300">Multi-District 1550-1610</text></svg>