<svg id="Layer_1" data-name="Layer 1" xmlns="http://www.w3.org/2000/svg" viewBox="0 0 800 500"><rect width="800" height="500" fill="#74acdf"/><rect y="166.67" width="800" height="166.67" fill="#fff"/><g id="rays"><path id="ray1" d="M396.84,251.31l28.45,62s.49,1.19,1.28.86.3-1.51.3-1.51l-23.71-64m-.68,24.12c-.35,9.43,5.45,14.62,4.69,23S411,309,412.11,312.3s-1.16,5.23-.2,5.7,3.07-2.12,2.39-6.78-4.22-6-3.39-16.32-4.21-12.68-3-22.06" fill="#f6b40e" stroke="#85340a" stroke-width="1.11"/><path id="ray1-2" data-name="ray1" d="M396.58,250l2.56,68.16s0,1.29.86,1.29.85-1.29.85-1.29L403.42,250m-9.86,22c-3.93,8.58-.56,15.59-4.48,23.08s-1.47,13.66-1.73,17.09-3.08,4.39-2.36,5.19,3.64-.78,4.79-5.35-1.59-7.19,3.11-16.37,1-13.32,5.69-21.52" fill="#f6b40e" stroke="#85340a" stroke-width="1.11"/><path id="ray1-3" data-name="ray1" d="M396.84,248.69l-23.72,64s-.49,1.18.3,1.51,1.28-.86,1.28-.86l28.46-62m-17.54,16.57c-6.91,6.42-6.48,14.19-13,19.61s-6.58,12.05-8.14,15.13-4.52,2.88-4.17,3.89,3.67.67,6.48-3.11,1.28-7.25,9.14-13.94,6-11.94,13.49-17.7" fill="#f6b40e" stroke="#85340a" stroke-width="1.11"/><path id="ray1-4" data-name="ray1" d="M397.58,247.58l-46.38,50s-.91.91-.31,1.51,1.51-.3,1.51-.3l50-46.38M379.87,261c-8.84,3.29-11.41,10.63-19.48,13.15s-10.7,8.62-13.31,10.86-5.28.93-5.34,2,3.13,2,7.17-.39,4-6.21,13.78-9.38,10.1-8.74,19.24-11.19" fill="#f6b40e" stroke="#85340a" stroke-width="1.11"/><path id="ray2" d="M404.31,274.41c.45,9,5.59,13.06,4.58,21.31,2.21-6.52-3.12-11.58-2.82-21.22m-7.65-23.75,19.49,42.57-16.33-43.88" fill="#85340a"/><path id="ray2-2" data-name="ray2" d="M394.64,274.2c-3.05,8.54.16,14.21-3.93,21.45,4.55-5.19,1.55-11.9,5.52-20.69m2-24.87L400,296.88l1.71-46.8" fill="#85340a"/><path id="ray2-3" data-name="ray2" d="M385.79,270.31C379.71,277,380.5,283.5,374,288.62c6.18-3.05,6-10.4,13-17m11.39-22.21L382,293.3l19.48-42.58" fill="#85340a"/><path id="ray2-4" data-name="ray2" d="M379.1,263.32c-8.19,3.89-9.93,10.16-17.94,12.39,6.87-.45,9.5-7.32,18.52-10.73m19-16.15-31.88,34.29,34.29-31.88" fill="#85340a"/></g><g id="rays-2" data-name="rays"><path id="ray1-5" data-name="ray1" d="M398.69,246.84l-62,28.45s-1.19.49-.86,1.28,1.51.3,1.51.3l64-23.71m-24.12-.68c-9.43-.35-14.62,5.45-23,4.69S341,261,337.7,262.11s-5.23-1.16-5.7-.2,2.12,3.07,6.78,2.39,6-4.22,16.32-3.39,12.68-4.21,22.06-3" fill="#f6b40e" stroke="#85340a" stroke-width="1.11"/><path id="ray1-6" data-name="ray1" d="M400,246.58l-68.16,2.56s-1.29,0-1.29.86,1.29.85,1.29.85L400,253.42m-22-9.86c-8.58-3.93-15.59-.56-23.08-4.48s-13.66-1.47-17.09-1.73-4.39-3.08-5.19-2.36.78,3.64,5.35,4.79,7.19-1.59,16.37,3.11,13.32,1,21.52,5.69" fill="#f6b40e" stroke="#85340a" stroke-width="1.11"/><path id="ray1-7" data-name="ray1" d="M401.31,246.84l-64-23.72s-1.18-.49-1.51.3.86,1.28.86,1.28l62,28.46m-16.57-17.54c-6.42-6.91-14.19-6.48-19.61-13s-12.05-6.58-15.13-8.14-2.88-4.52-3.89-4.17-.67,3.67,3.11,6.48,7.25,1.28,13.94,9.14,11.94,6,17.7,13.49" fill="#f6b40e" stroke="#85340a" stroke-width="1.11"/><path id="ray1-8" data-name="ray1" d="M402.42,247.58l-50-46.38s-.91-.91-1.51-.31.3,1.51.3,1.51l46.38,50M389,229.87c-3.29-8.84-10.63-11.41-13.15-19.48s-8.62-10.7-10.86-13.31-.93-5.28-2-5.34-2,3.13.39,7.17,6.21,4,9.38,13.78,8.74,10.1,11.19,19.24" fill="#f6b40e" stroke="#85340a" stroke-width="1.11"/><path id="ray2-5" data-name="ray2" d="M375.59,254.31c-9,.45-13.06,5.59-21.31,4.58,6.52,2.21,11.58-3.12,21.22-2.82m23.75-7.65-42.57,19.49,43.88-16.33" fill="#85340a"/><path id="ray2-6" data-name="ray2" d="M375.8,244.64c-8.54-3-14.21.16-21.45-3.93,5.19,4.55,11.9,1.55,20.69,5.52m24.87,2L353.12,250l46.8,1.71" fill="#85340a"/><path id="ray2-7" data-name="ray2" d="M379.69,235.79C373,229.71,366.5,230.5,361.38,224c3.05,6.18,10.4,6,17,13m22.21,11.39L356.7,232l42.58,19.48" fill="#85340a"/><path id="ray2-8" data-name="ray2" d="M386.68,229.1c-3.89-8.19-10.16-9.93-12.39-17.94.45,6.87,7.32,9.5,10.73,18.52m16.15,19-34.29-31.88,31.88,34.29" fill="#85340a"/></g><g id="rays-3" data-name="rays"><path id="ray1-9" data-name="ray1" d="M403.16,248.69l-28.45-62s-.49-1.19-1.28-.86-.3,1.51-.3,1.51l23.71,64m.68-24.12c.35-9.43-5.45-14.62-4.69-23S389,191,387.89,187.7s1.16-5.23.2-5.7-3.07,2.12-2.39,6.78,4.22,6,3.39,16.32,4.21,12.68,3,22.06" fill="#f6b40e" stroke="#85340a" stroke-width="1.11"/><path id="ray1-10" data-name="ray1" d="M403.42,250l-2.56-68.16s0-1.29-.86-1.29-.85,1.29-.85,1.29L396.58,250m9.86-22c3.93-8.58.56-15.59,4.48-23.08s1.47-13.66,1.73-17.09,3.08-4.39,2.36-5.19-3.64.78-4.79,5.35,1.59,7.19-3.11,16.37-1,13.32-5.69,21.52" fill="#f6b40e" stroke="#85340a" stroke-width="1.11"/><path id="ray1-11" data-name="ray1" d="M403.16,251.31l23.72-64s.49-1.18-.3-1.51-1.28.86-1.28.86l-28.46,62m17.54-16.57c6.91-6.42,6.48-14.19,13-19.61s6.58-12,8.14-15.13,4.52-2.88,4.17-3.89-3.67-.67-6.48,3.11-1.28,7.25-9.14,13.94-6,11.94-13.49,17.7" fill="#f6b40e" stroke="#85340a" stroke-width="1.11"/><path id="ray1-12" data-name="ray1" d="M402.42,252.42l46.38-50s.91-.91.31-1.51-1.51.3-1.51.3l-50,46.38m22.55-8.6c8.84-3.29,11.41-10.63,19.48-13.15s10.7-8.62,13.31-10.86,5.28-.93,5.34-2-3.13-2-7.17.39-4,6.21-13.78,9.38-10.1,8.74-19.24,11.19" fill="#f6b40e" stroke="#85340a" stroke-width="1.11"/><path id="ray2-9" data-name="ray2" d="M395.69,225.59c-.45-9.05-5.59-13.06-4.58-21.31-2.21,6.52,3.12,11.58,2.82,21.22m7.65,23.75-19.49-42.57,16.33,43.88" fill="#85340a"/><path id="ray2-10" data-name="ray2" d="M405.36,225.8c3.05-8.54-.16-14.21,3.93-21.45-4.55,5.19-1.55,11.9-5.52,20.69m-2,24.87L400,203.12l-1.71,46.8" fill="#85340a"/><path id="ray2-11" data-name="ray2" d="M414.21,229.69c6.08-6.72,5.29-13.19,11.84-18.31-6.18,3.05-6,10.4-13,17m-11.39,22.21L418,206.7l-19.48,42.58" fill="#85340a"/><path id="ray2-12" data-name="ray2" d="M420.9,236.68c8.19-3.89,9.93-10.16,17.94-12.39-6.87.45-9.5,7.32-18.52,10.73m-19,16.15,31.88-34.29-34.29,31.88" fill="#85340a"/></g><g id="rays-4" data-name="rays"><path id="ray1-13" data-name="ray1" d="M401.31,253.16l62-28.45s1.19-.49.86-1.28-1.51-.3-1.51-.3l-64,23.71m24.12.68c9.43.35,14.62-5.45,23-4.69S459,239,462.3,237.89s5.23,1.16,5.7.2-2.12-3.07-6.78-2.39-6,4.22-16.32,3.39-12.68,4.21-22.06,3" fill="#f6b40e" stroke="#85340a" stroke-width="1.11"/><path id="ray1-14" data-name="ray1" d="M400,253.42l68.16-2.56s1.29,0,1.29-.86-1.29-.85-1.29-.85L400,246.58m22,9.86c8.58,3.93,15.59.56,23.08,4.48s13.66,1.47,17.09,1.73,4.39,3.08,5.19,2.36-.78-3.64-5.35-4.79-7.19,1.59-16.37-3.11-13.32-1-21.52-5.69" fill="#f6b40e" stroke="#85340a" stroke-width="1.11"/><path id="ray1-15" data-name="ray1" d="M398.69,253.16l64,23.72s1.18.49,1.51-.3-.86-1.28-.86-1.28l-62-28.46m16.57,17.54c6.42,6.91,14.19,6.48,19.61,13s12.05,6.58,15.13,8.14,2.88,4.52,3.89,4.17.67-3.67-3.11-6.48-7.25-1.28-13.94-9.14-11.94-6-17.7-13.49" fill="#f6b40e" stroke="#85340a" stroke-width="1.11"/><path id="ray1-16" data-name="ray1" d="M397.58,252.42l50,46.38s.91.91,1.51.31-.3-1.51-.3-1.51l-46.38-50m8.6,22.55c3.29,8.84,10.63,11.41,13.15,19.48s8.62,10.7,10.86,13.31.93,5.28,2,5.34,2-3.13-.39-7.17-6.21-4-9.38-13.78-8.74-10.1-11.19-19.24" fill="#f6b40e" stroke="#85340a" stroke-width="1.11"/><path id="ray2-13" data-name="ray2" d="M424.41,245.69c9-.45,13.06-5.59,21.31-4.58-6.52-2.21-11.58,3.12-21.22,2.82m-23.75,7.65,42.57-19.49-43.88,16.33" fill="#85340a"/><path id="ray2-14" data-name="ray2" d="M424.2,255.36c8.54,3.05,14.21-.16,21.45,3.93-5.19-4.55-11.9-1.55-20.69-5.52m-24.87-2L446.88,250l-46.8-1.71" fill="#85340a"/><path id="ray2-15" data-name="ray2" d="M420.31,264.21c6.72,6.08,13.19,5.29,18.31,11.84-3.05-6.18-10.4-6-17-13m-22.21-11.39L443.3,268l-42.58-19.48" fill="#85340a"/><path id="ray2-16" data-name="ray2" d="M413.32,270.9c3.89,8.19,10.16,9.93,12.39,17.94-.45-6.87-7.32-9.5-10.73-18.52m-16.15-19,34.29,31.88-31.88-34.29" fill="#85340a"/></g><circle cx="400" cy="250" r="27.78" fill="#f6b40e" stroke="#85340a" stroke-width="1.5"/><path id="loweyecontour" d="M409.47,244.06a5.49,5.49,0,0,0-4.78,2.53c2.14,1.92,6.86,2.13,10.06-.22a7.35,7.35,0,0,0-5.28-2.31Zm0,.44c1.85,0,3.57.81,3.81,1.65a5.64,5.64,0,0,1-7.69.44,4.51,4.51,0,0,1,3.88-2.09Z" fill="#843511"/><path id="uppalpebra" d="M409.83,242.74c-2.78,0-3.42.64-4.7,1.71a5.59,5.59,0,0,1-2.14,1.07c-.21.21,0,.85.43.64a12.4,12.4,0,0,0,2.56-1.71,5.35,5.35,0,0,1,3.85-1.07c3.85,0,6,3.21,6.41,3s-2.14-3.63-6.41-3.63Z" fill="#85340a"/><path id="eyebrow_nose" data-name="eyebrow nose" d="M417.52,244c-4.91-4.27-11.11-4.91-14.53-1.71a8.33,8.33,0,0,0-1.59,3.57c-.43,2.43.33,5.06,2.23,7.76a1.62,1.62,0,0,0-.85.42,15.15,15.15,0,0,1-1.74-9.74,13.19,13.19,0,0,1,.67-2.44c4.7-3.84,11.11-4.27,15.81,2.14Z" fill="#85340a"/><circle id="pupil" cx="409.4" cy="246.15" r="1.92" fill="#85340a"/><path id="lowpalpebra" d="M415,247.44c-3.63,2.78-7.27,2.56-9.4,1.28s-2.14-1.71-1.71-1.71.85.43,2.56,1.28,4.27.86,8.55-.85Z" fill="#85340a"/><path d="M395.75,253.84a1.93,1.93,0,0,0-1.56,1.91,1.91,1.91,0,0,0,1.93,1.9,1.89,1.89,0,0,0,1.57-.81,3.93,3.93,0,0,0,2.31.62,2.08,2.08,0,0,0,.25,0,4,4,0,0,0,2.31-.62,1.88,1.88,0,0,0,1.56.81,1.92,1.92,0,0,0,.38-3.81,1.29,1.29,0,1,1-1.72,1.28,2.91,2.91,0,0,1-5.31,0,1.29,1.29,0,0,1-1.28,1.22,1.29,1.29,0,0,1-.44-2.5Z" fill="#85340a"/><path d="M397.84,259.53c-2.14,0-3,1.94-4.91,3.22a38.91,38.91,0,0,0,3.41-2.13c1.5-.85,2.77.19,3.62.19h0c.85,0,2.13-1,3.62-.19a38.75,38.75,0,0,0,3.44,2.13c-1.92-1.28-2.8-3.22-4.94-3.22a5.63,5.63,0,0,0-2.12.66h0A5.63,5.63,0,0,0,397.84,259.53Z" fill="#85340a"/><path d="M397.12,262.06a14.86,14.86,0,0,0-3.56.69c3.84-.86,4.69.43,6.4.43h0c1.71,0,2.56-1.29,6.41-.43-4.27-1.28-5.12-.44-6.41-.44h0a23.34,23.34,0,0,0-2.84-.25Z" fill="#85340a"/><path d="M393.75,262.72l-.81,0c4.49.43,2.33,3,7,3h0c4.7,0,2.57-2.57,7.06-3-4.7-.43-3.21,2.35-7.06,2.35h0c-3.61,0-2.5-2.43-6.22-2.38Z" fill="#85340a"/><path d="M403.85,269.66a3.85,3.85,0,1,0-7.69,0,4,4,0,0,1,7.69,0Z" fill="#85340a"/><path id="eyebrow_nose-2" data-name="eyebrow nose" d="M382.73,244c4.91-4.27,11.11-4.91,14.53-1.71a8.33,8.33,0,0,1,1.59,3.57c.43,2.43-.33,5.06-2.23,7.76a1.62,1.62,0,0,1,.85.42,15.15,15.15,0,0,0,1.74-9.74,13.19,13.19,0,0,0-.67-2.44c-4.7-3.84-11.11-4.27-15.81,2.14Z" fill="#85340a"/><path id="uppalpebra-2" data-name="uppalpebra" d="M390.42,242.74c2.78,0,3.42.64,4.7,1.71a5.59,5.59,0,0,0,2.14,1.07c.21.21,0,.85-.43.64a12.4,12.4,0,0,1-2.56-1.71,5.35,5.35,0,0,0-3.85-1.07c-3.85,0-6,3.21-6.41,3s2.14-3.63,6.41-3.63Z" fill="#85340a"/><path id="loweyecontour-2" data-name="loweyecontour" d="M390.29,244.06a5.49,5.49,0,0,0-4.78,2.53c2.13,1.92,6.85,2.13,10.06-.22a7.35,7.35,0,0,0-5.28-2.31Zm0,.44c1.84,0,3.57.81,3.81,1.65a5.64,5.64,0,0,1-7.69.44,4.51,4.51,0,0,1,3.88-2.09Z" fill="#843511"/><circle id="pupil-2" data-name="pupil" cx="390.54" cy="246.15" r="1.92" fill="#85340a"/><path id="lowpalpebra-2" data-name="lowpalpebra" d="M385.29,247.44c3.63,2.78,7.27,2.56,9.4,1.28s2.14-1.71,1.71-1.71-.85.43-2.56,1.28-4.27.86-8.55-.85Z" fill="#85340a"/></svg>