<svg id="Layer_1" data-name="Layer 1" xmlns="http://www.w3.org/2000/svg" viewBox="0 0 222.8 222.76"><path d="M226.73,108v-.31l-.24-.14a35,35,0,0,0-17-4.61c-.12-.8-.88-6.48-1-7.29a34.75,34.75,0,0,0,15.24-8.85l.21-.19-.06-.31a32.73,32.73,0,0,0-1.86-7L221.9,79l-.29-.07a34.9,34.9,0,0,0-17.58,0c-.28-.75-2.44-6-2.75-6.72a35.85,35.85,0,0,0,12.38-12.43l.14-.23-.07-.27a35.94,35.94,0,0,0-3.6-6.25l-.17-.24h-.32a35.5,35.5,0,0,0-17,4.47c-.48-.66-4-5.23-4.47-5.87A35.24,35.24,0,0,0,197,36.16l.08-.3-.21-.23a32.81,32.81,0,0,0-5.11-5.16l-.22-.17h-.31A35.42,35.42,0,0,0,176,39.08c-.66-.51-5.22-4.08-5.88-4.62A34.41,34.41,0,0,0,174.73,18v-.74l-.23-.18a29.82,29.82,0,0,0-6.29-3.63l-.26-.1-.25.13a34.94,34.94,0,0,0-12.46,12.32c-.78-.3-6.33-2.63-7.06-3a36.53,36.53,0,0,0,1.19-8.89,29.83,29.83,0,0,0-1.19-8.66l-.07-.28-.29-.11a31.5,31.5,0,0,0-6.93-1.9l-.33-.05-.19.2a35.16,35.16,0,0,0-8.81,15.22c-.82-.14-6.56-.85-7.43-.94a34.84,34.84,0,0,0-4.56-17l-.14-.15h-.3a32.46,32.46,0,0,0-7.24,0h-.32l-.14.27a35,35,0,0,0-4.55,16.94c-.83.11-6.66.82-7.5,1A35,35,0,0,0,90.57,3.17L90.35,3H90a34,34,0,0,0-7,1.86l-.28.12-.11.28A33.24,33.24,0,0,0,81.54,14a37.91,37.91,0,0,0,1.19,8.8c-.73.31-6.33,2.72-7.08,3A35.65,35.65,0,0,0,63.24,13.35L63,13.19l-.31.11a35.68,35.68,0,0,0-6.24,3.64l-.26.16v.8a34.93,34.93,0,0,0,4.56,16.6c-.63.52-4.84,3.82-5.48,4.33A35.31,35.31,0,0,0,40,30L39.74,30l-.21.2a31.12,31.12,0,0,0-5.17,5.09l-.19.24.07.29A35.5,35.5,0,0,0,43,51c-.46.64-4.13,5.42-4.64,6.08a34.84,34.84,0,0,0-17-4.59h-.28l-.18.25A34.09,34.09,0,0,0,17.28,59l-.12.26.15.28A35.57,35.57,0,0,0,29.73,72c-.28.74-2.41,5.92-2.73,6.67a34.57,34.57,0,0,0-17.61,0l-.29.07L9,79a32.51,32.51,0,0,0-1.9,7v.3l.21.24a34.59,34.59,0,0,0,15.23,8.73c-.12.82-.87,6.56-1,7.34a35.2,35.2,0,0,0-17,4.56l-.27.15v.3a32.55,32.55,0,0,0,0,7.25v.29l.27.14a34.83,34.83,0,0,0,17,4.55c.12.83.93,6.72,1,7.53a35.55,35.55,0,0,0-15.2,8.86l-.21.25v.27a35.33,35.33,0,0,0,1.89,7l.12.26.27.1a35.06,35.06,0,0,0,17.62,0c.3.74,2.58,6,2.9,6.71a35.26,35.26,0,0,0-12.42,12.39l-.13.27.1.28a34.3,34.3,0,0,0,3.64,6.26l.18.24h.28a35,35,0,0,0,17-4.5c.5.62,4.09,5.3,4.56,5.94a34.92,34.92,0,0,0-8.8,15.2l-.07.28.18.24a37.54,37.54,0,0,0,5.1,5.14l.24.21.29-.1A35.17,35.17,0,0,0,55.32,184c.66.52,5.31,4.09,6,4.6a36,36,0,0,0-4.53,16.7v.61l.27.21a36.52,36.52,0,0,0,6.23,3.62l.27.1.29-.14A35.27,35.27,0,0,0,76.31,197.2l6.58,2.67a35.78,35.78,0,0,0-1.16,8.8,31.27,31.27,0,0,0,1.19,8.76l.06.29.3.11a34,34,0,0,0,7,1.93h.32l.21-.24a34.17,34.17,0,0,0,8.72-15.2c.84.14,6.72,1,7.54,1.06a34.82,34.82,0,0,0,4.59,16.93l.12.26h.33a32.37,32.37,0,0,0,7.23,0h.29l.15-.26a35.69,35.69,0,0,0,4.6-17l7.14-1a34.49,34.49,0,0,0,8.79,15.24l.22.2h.27a36.9,36.9,0,0,0,7-1.87l.26-.13.09-.27a32,32,0,0,0,1.14-8.76,37,37,0,0,0-1.14-8.89c.76-.29,6.09-2.6,6.84-2.93a35.82,35.82,0,0,0,12.42,12.44l.24.12.29-.11a31.34,31.34,0,0,0,6.29-3.65l.23-.14v-.81a36.26,36.26,0,0,0-4.5-16.53c.64-.5,5-3.92,5.67-4.43a36,36,0,0,0,15.27,8.79l.28.08.22-.2a37.61,37.61,0,0,0,5.15-5.1l.2-.26-.1-.26a35.16,35.16,0,0,0-8.73-15.25c.49-.65,4-5.32,4.52-6a34.8,34.8,0,0,0,17,4.49h.3l.18-.22a29.05,29.05,0,0,0,3.63-6.3l.12-.25-.14-.27a36.45,36.45,0,0,0-12.3-12.48c.3-.74,2.41-5.89,2.72-6.63a33.91,33.91,0,0,0,17.55,0l.26-.09.12-.26a34.71,34.71,0,0,0,1.91-7v-.3l-.22-.23a34.56,34.56,0,0,0-15.15-8.78c.13-.8.91-6.32,1-7.13a35,35,0,0,0,17-4.58l.24-.16v-.31a29.18,29.18,0,0,0,.2-3.62,27.24,27.24,0,0,0-.13-3.5Zm-111.21,86.3A83.5,83.5,0,1,1,199,110.75v0A83.59,83.59,0,0,1,115.52,194.27Z" transform="translate(-4.07 -0.01)" fill="#fff"/><path d="M115.52,37.32A73.46,73.46,0,1,0,189,110.79v0a73.52,73.52,0,0,0-73.45-73.45Zm9.21,11.81a2.94,2.94,0,0,1,2.57-.2c14.76,3.57,25.59,9.8,36.17,20.92A3.45,3.45,0,0,1,164.63,72v.26c-.22,1-1.35,1.55-2.36,2l-30.9,15a3.33,3.33,0,0,1-3.25.07,3.41,3.41,0,0,1-1.58-2.86l-2.49-34.23C124,50.64,124.17,49.63,124.73,49.13Zm-57.37,21C77.93,59,88.75,52.76,103.51,49.22a2.82,2.82,0,0,1,2.54.21c.63.48.84,1.49.73,3.13l-2.45,34.21a3.12,3.12,0,0,1-4.8,2.79l-30.88-15c-1-.5-2.19-1-2.39-2a3.09,3.09,0,0,1,1.13-2.45ZM60,133.57c-1.34.92-2.33,1.25-3.09,1s-1.12-1.22-1.39-2.13c-4.37-14.58-4.37-27.08,0-41.78.37-1.26.9-2,1.57-2.2,1-.36,2,.37,3,1l28.38,19.31a3.41,3.41,0,0,1,1.7,2.78,3.56,3.56,0,0,1-1.66,2.77Zm46.6,40.2a2.87,2.87,0,0,1-2.57.14c-14.75-3.52-25.6-9.76-36.15-20.89a3.29,3.29,0,0,1-1.14-2.13,1.61,1.61,0,0,1,0-.31c.14-1,1.33-1.54,2.33-2l30.9-15a3.16,3.16,0,0,1,4.35,1,3.27,3.27,0,0,1,.48,1.8l2.5,34.3c.16,1.59-.08,2.59-.67,3.11Zm8.8-42.76a20.07,20.07,0,0,1-11-36.82A4.05,4.05,0,1,1,108.9,101h0a12,12,0,1,0,13.15,0,4.05,4.05,0,0,1,4.47-6.76,20.07,20.07,0,0,1-11,36.83Zm48.08,21.61C153,163.7,142.2,169.94,127.36,173.5a3,3,0,0,1-2.66-.23c-.78-.65-.68-2-.6-3.08l2.46-34.25a3.63,3.63,0,0,1,1.62-2.9,3.52,3.52,0,0,1,3.22.1l30.91,15c1.45.71,2.22,1.41,2.37,2.18s-.45,1.57-1.14,2.28Zm10.42-64.34c.83.28,1.16,1.2,1.41,2.11,4.35,14.59,4.35,27.08,0,41.79-.35,1.26-.86,2-1.53,2.23-1,.3-2-.4-2.92-1.06l-28.42-19.28a3.46,3.46,0,0,1-1.73-2.79,3.52,3.52,0,0,1,1.73-2.79l28.42-19.27c1.31-.94,2.32-1.23,3.07-1Z" transform="translate(-4.07 -0.01)" fill="#fff"/></svg>