<svg id="Layer_1" data-name="Layer 1" xmlns="http://www.w3.org/2000/svg" viewBox="0 0 2040.44 1868.74"><path d="M4.87,946C5,891.59,7.7,837.36,15.07,783.44c14.08-103,43.41-201.35,90.58-294.17,5.5-10.84,11.57-21.39,17-32.26,11.77-23.47,30.27-40.42,52.39-53.57,29.87-17.76,62.52-25,97.16-24a7.17,7.17,0,0,0,5.21-2.43c82.12-111.77,185.5-199,307-265,88-47.85,181.77-79.19,280.75-94.8a861,861,0,0,1,147.9-10.77c35.64.56,71.35,1,106.87,3.73C1209.35,17,1296.16,36.1,1379.7,69c167.06,65.85,299.53,174.8,400.66,322.54,22.14,32.35,41.91,66.13,58.05,101.92,1.41,3.12,3.21,3.48,6.16,3.3,22-1.37,43.9-.44,65.65,4,22.64,4.58,39.12,16.49,50.9,36.59,18.84,32.17,32.37,66.41,42.85,102,16.54,56.11,26.17,113.54,32.28,171.63,6.24,59.38,10.22,118.9,8.73,178.63-2,78.84-14.6,156.13-35.32,232.14-17.18,63-39.88,123.88-69.69,182.09-12.33,24.09-26.81,46-50,61.13s-48.25,24.07-75.27,28c-12.82,1.84-25.87,2.06-38.8,3.21-1.7.15-3.94,1-4.86,2.29-48.95,68-108,126.28-173.68,177.94a927.65,927.65,0,0,1-248.84,140.4,903.21,903.21,0,0,1-176,46.4c-57.6,9.15-115.58,13.65-173.83,11.41-133.18-5.1-260.48-35-380.51-93.67-111.5-54.54-207.42-129.45-289-222.86-41.23-47.21-77.68-97.83-107.95-152.79-3.53-6.42-6.61-13.09-10.22-19.46-.73-1.28-3-2.66-4.35-2.46-24.93,3.86-48.82-.82-72.15-9-10-3.53-19.62-8.28-29.45-12.38-10.38-4.34-18-11.75-24.21-20.93-14-20.81-22.9-44-30.63-67.59-16.75-51.14-27-103.73-34.31-157A1207.25,1207.25,0,0,1,4.87,946Zm787.22,726c0,.23.07.46.1.69l.44-.15L792,1672a28.62,28.62,0,0,0-2.43-2.93c-12.33-11.46-24.82-22.74-37-34.35-52-49.49-96.72-104.66-131.32-167.79a950.19,950.19,0,0,1-47.27-100.81c-1-2.33-3-5-5.22-5.94a957.25,957.25,0,0,1-94.39-46.81,9.15,9.15,0,0,0-8.42-.72q-34.76,12.54-69.62,24.81c-7.29,2.58-14.65,5-22.28,7.52,1.23,1.85,2,3.11,2.88,4.33,38.88,55.2,82.19,106.58,131.44,152.86,75.46,70.89,160.87,125.9,258.28,161.72C775,1667,783.59,1669.28,792.09,1671.94ZM317.91,602c.9-1.68,1.7-3.1,2.43-4.55A792.32,792.32,0,0,1,498.15,364.29,822.59,822.59,0,0,1,722.3,219.78a785.73,785.73,0,0,1,193.15-56.63c63.22-9.91,126.73-11,190.4-5.29a731,731,0,0,1,158.78,32.4c100.84,32.42,190.88,83.91,270.59,153.56,59.9,52.35,110.67,112.5,153.31,179.59,5,7.8,2.54,6.74,11.66,4.25,23.13-6.31,46.13-13.11,69.34-19.08,16.84-4.34,33.94-7.68,51.18-11.52-1.06-2.11-2.24-4.47-3.45-6.82a952.45,952.45,0,0,0-87.44-139c-60.74-79.87-132.94-147.3-218.17-200.47-121.25-75.65-254.23-115-395.93-126.48-33.18-2.69-66.56-3-99.86-4.05A805,805,0,0,0,853.6,31.84a830.41,830.41,0,0,0-255.26,88.32C428.33,212.25,300,344.73,215.05,518.75c-4.86,10-9.25,20.17-14,30.52A1141.47,1141.47,0,0,0,317.91,602Zm-90.06,778.35c1.05,2.08,1.75,3.57,2.53,5a957.63,957.63,0,0,0,76.74,119.25C427.24,1663,583.59,1768.31,774.34,1823.1A916.48,916.48,0,0,0,926,1853.53c32.08,3.57,64.39,6.26,96.64,6.89,38.49.74,76.87-3.27,115.07-8.34a924.48,924.48,0,0,0,203.68-50.65c117.18-43.94,220.6-109.85,311.37-195.81,76.81-72.73,140.3-155.88,193-247.39,5.54-9.61,10.86-19.35,16.43-29.3-39.08-23.57-79.61-42.7-121.79-58.9-1,1.84-1.85,3.26-2.61,4.71a971,971,0,0,1-87.15,138c-68.12,89.6-149.76,163.84-248.53,218.59-95.81,53.1-198.72,82.26-307.69,90.52a902.09,902.09,0,0,1-144.33-.75,784.47,784.47,0,0,1-128-21.29c-115.45-29.42-216.78-85.13-305.6-164.15-60-53.36-111.28-114.27-156.41-180.49-2.62-3.83-4.75-4.67-9.24-3.3C310.76,1364.18,270.26,1375.1,227.85,1380.34Zm-18.69-110.57,106.89-32.18c-2-3.67-3.76-7-5.56-10.39a425,425,0,0,1-40.84-108.59,115.73,115.73,0,0,1-.29-49.39,30.8,30.8,0,0,1,1.51,2.84,213.41,213.41,0,0,0,29.85,53.5c7.62,10.09,16,19.58,23.88,29.5q25.59,32.31,51,64.8c1.84,2.36,3.54,3.11,6.71,2.34,36.56-8.9,73.18-17.6,109.78-26.37,3.63-.87,7.22-1.89,11.83-3.1C451.23,1137.9,401.16,1082.26,365.76,1015c21.44-1.83,33.81-15.74,43.28-33a158.27,158.27,0,0,0,10-22.85c7-19.56,10.29-40,12.56-60.53,3.38-30.6,4.53-61.16-2.52-91.49-7.75-33.36-23.25-61.88-53.2-80.19-11.09-6.78-23.57-11.61-35.88-16q-60.63-21.79-121.65-42.47c-10.35-3.51-21.33-5.16-32-7.7-4.92-1.17-7.69.51-9.11,5.55-2.84,10.1-6.42,20-9.19,30.09-16.3,59.57-27.07,120.18-34.1,181.52-4.81,42-6.63,83.94-1.81,126.14A828.21,828.21,0,0,0,194,1236.86C198.72,1247.85,204,1258.59,209.16,1269.77Zm1319.14-588c0,.35-.06.57,0,.65l7.64,7.13c32.94,30.92,61.46,65.66,88,102.06,18.79,25.72,36.12,52.38,50.45,80.91,2.19,4.34,2.76,8.15.9,12.7-5.73,14-10.55,28.45-16.88,42.18-23.7,51.42-55.09,98.1-89.63,142.75-10.57,13.67-21.67,26.93-32.89,40.82,2.32.35,4.38.71,6.45,1,39.67,4.92,79.42,9.3,118.55,17.9a6.21,6.21,0,0,0,5-1.66,170.35,170.35,0,0,0,11.65-14.34c22.36-31.08,40.05-64.87,57.36-98.89,5.18-10.17,10.12-20.47,15.68-31.75.42,2.26.68,3.32.82,4.4,6.81,54.91,12.85,109.89,13.76,165.29.06,3.83,1.27,5.59,4.82,6.75,6.17,2,12.18,4.53,18.24,6.85,34.88,13.3,69.51,27.14,102,45.76a12.57,12.57,0,0,0,2.44.73c.12-1.68.24-3,.29-4.29a731.68,731.68,0,0,0-14.5-172.93c-7.52-37.14-17.68-73.49-32.62-108.39-8.48-19.81-18.54-38.74-31.81-55.91a190.43,190.43,0,0,0,19.92-48c19-69.91,21.77-141,14.69-212.7-.73-7.33-2.27-14.58-3.47-22.12-40,17.56-81.44,27.18-123,36.14,7.94,37,13.06,125.92,8.36,140.59-10.68-17.62-21.23-35.73-32.48-53.39-14.25-22.38-29.9-43.75-48.8-62.54-2.1-2.1-3.78-2.62-6.9-1.59-25.11,8.34-50.25,16.62-75.56,24.33C1554.15,676,1541.12,678.58,1528.3,681.75ZM877,962.37c-.07-33.48-4.77-62-16.42-88.94-21.79-50.49-58-86.15-111.16-101.77-53.44-15.7-104.2-6.18-150.66,23.61-69.68,44.66-104,127.8-87.86,209.57,8.69,44,29,81.32,63.73,110.17,35.84,29.8,77.94,42.9,123.88,43.58,53.68.78,97.14-21.66,131.16-62.36C862.91,1056.42,876.17,1009.36,877,962.37Zm351.8,228.35c-135.59.56-269.47,13.45-402.84,35.45.36,3,.7,5.43,1,7.89,5.72,56.2,13.43,112.11,23.88,167.65.82,4.32,2.59,5.72,6.61,6.13,34.3,3.42,68.52,7.94,102.9,10.3a1030.17,1030.17,0,0,0,231.74-9.7c3.74-.59,5.21-1.9,6-5.64,11-53,19.36-106.5,25.46-160.31C1225.38,1225.48,1227,1208.42,1228.76,1190.72Zm-6.53-539.8c-.72-8-1.42-15.6-2.1-23.19a1448.09,1448.09,0,0,0-22-153.73c-.53-2.66-1.41-3.94-4.34-4.27-24.82-2.79-49.54-6.79-74.43-8.48C1032,455.32,945,461.05,858.28,473c-3,.41-4.18,1.6-4.74,4.55-2.08,11.12-4.84,22.13-6.63,33.3q-11.05,69-21.59,138.17c-2,13.11-3.11,26.36-4.68,40.1C955.92,689.33,1089.23,674.46,1222.23,650.92ZM1262.75,735c20.94,121.34,30.7,242.2,17.78,364.47,1.82.2,3.27.42,4.73.5,22,1.22,43.9,3.16,65.88,3.48,46.47.69,92.95.49,139.43.77,4,0,5.65-1.4,6.79-5.31,8.28-28.58,13.39-57.73,16.72-87.24.38-3.38.74-6.77,1.17-10.71h-111c-.74-16.5-1.46-32.51-2.21-49l99.69-1.82V856l-106.22,3.16c-.5-13.52-.89-26.16-1.49-38.78-.15-3.27,1.15-4.11,4.21-4.59,22-3.46,44.06-7.16,66.08-10.78,12.45-2.05,24.9-4.08,38-6.21-5.15-16.23-9.71-32.07-15.22-47.57-6.42-18-13.67-35.75-20.59-53.59-.78-2-1.45-3.7-4.6-3.12-40.3,7.35-80.74,14-120.91,21.94C1314.82,721.6,1289.11,728.66,1262.75,735ZM859,1438.46a27.08,27.08,0,0,0,.23,2.74,957.07,957.07,0,0,0,31,108.45c19.28,54.41,44.4,105.89,76.69,153.81,1.92,2.85,3.88,4.29,7.51,4.55a738.09,738.09,0,0,0,108.36-.1c3.12-.24,5.17-1,6.71-3.93,9.66-18.8,20.11-37.22,29.19-56.3,29.45-61.85,50.58-126.67,67.33-193,1.36-5.36,2.55-10.76,3.93-16.61-55.39,8.54-110.25,13.15-165.52,12.47A1368.87,1368.87,0,0,1,859,1438.46ZM1190,437.63c-.18-1.36-.23-2.3-.44-3.21-20.59-89.9-53-175.55-93.33-258.31a7.36,7.36,0,0,0-5-3.58,828.82,828.82,0,0,0-125.86,0A7.38,7.38,0,0,0,960.1,176c-14.1,29.42-28.74,58.62-41.72,88.54-21.11,48.68-36.79,99.27-50.2,150.56-2.11,8.11-4,16.28-6.08,24.77C971.66,426.75,1080.57,422.28,1190,437.63ZM1013.28,878q5.75,113.34,11.59,228.34l110.06-6c0-2.64,0-4.1,0-5.56-.41-20.33-1.22-40.65-1.15-61,.18-54.31.77-108.61,1.09-162.92,0-3.51.94-4.79,4.62-5.27,14-1.84,28-4.14,42-6.26l17.78-2.65c-2.81-36.64-5.1-72.79-11.6-109.56l-243.15,22c-2.89,36.06-3.52,70.65-.27,105.24.12,1.24,2.26,3.15,3.57,3.26,5.47.44,11,.37,16.48.38Q988.75,878.06,1013.28,878Zm713.1,387.06c-1.3-.64-1.83-1-2.42-1.2-20.42-6.64-40.83-13.34-61.32-19.77-1.58-.5-4.15.45-5.63,1.57-9.19,6.9-18,14.26-27.29,21.08-44.42,32.76-92.31,59.56-142.29,82.79a12.19,12.19,0,0,0-5.51,5.68c-8.54,19.34-16.28,39-25.2,58.2-45,96.6-106.17,181.51-184.72,253.72a19.82,19.82,0,0,1-3.82,2.2l1.71,1.77C1478,1599.19,1624,1457.21,1726.38,1265.08ZM780.63,211.23c-90.65,32-171.16,78.76-243.35,140C452.51,423.09,385.46,509,334.38,608c1.92.79,3.25,1.43,4.63,1.91,15.27,5.23,30.59,10.35,45.81,15.74,3.35,1.19,5.62.76,8.48-1.41A889.78,889.78,0,0,1,564,523a11.86,11.86,0,0,0,5.57-5.68,885.09,885.09,0,0,1,54.66-109.4C659.72,347.52,700.8,291.26,749.77,241,759.39,231.12,769.61,221.83,780.63,211.23ZM1267.81,208l-1.73,1.74a29.46,29.46,0,0,1,4.56,3.05c42.76,41.53,82.38,85.77,116.46,134.81,35.69,51.38,64.66,106.37,88.61,164.08a11.12,11.12,0,0,0,5,5.48q49,22.42,98.32,44.34a12.4,12.4,0,0,0,7.9.58c20.1-6,40.11-12.29,60.15-18.49,10.29-3.18,20.6-6.32,31.56-9.68C1577.19,379.6,1443,267.87,1267.81,208ZM1126.9,1703.06a8.15,8.15,0,0,0,1.71,0c28.3-5.33,56.6-10.63,84.87-16.1a10.86,10.86,0,0,0,4.89-3.1c9.67-9.42,19.34-18.84,28.81-28.45,74.35-75.36,136-159.64,179.73-256.45,4.13-9.14,8-18.38,12.13-27.74-1.06-.18-1.41-.35-1.67-.27-1.27.39-2.54.81-3.77,1.29a1149.41,1149.41,0,0,1-203.69,58.69c-2.92.56-4.14,1.8-4.83,4.6-3.27,13.26-6.59,26.5-10.18,39.67-15.81,57.9-34.29,114.89-59.16,169.6C1146.81,1664.44,1136.61,1683.53,1126.9,1703.06ZM611.46,502.68c2.52-.74,3.89-1.07,5.22-1.53,18.24-6.35,36.35-13.1,54.73-19,48.75-15.7,98.54-27.18,149-35.7,3.73-.63,4.88-2.25,5.6-5.54,1.84-8.46,4-16.85,6-25.26,20.33-83,51.16-161.84,94.56-235.62.55-.93.89-2,1.53-3.43a40,40,0,0,0-4.38.33c-23.08,4.26-46.19,8.38-69.21,12.93-10.67,2.11-20.71,4.7-29.59,12.75-84.38,76.54-151.65,165.66-199.75,269.07C620.62,481.57,616.35,491.64,611.46,502.68Zm513.18-327c.81,1.88,1.17,3,1.71,3.94,43.44,78.19,73.08,161.52,92.84,248.55,1.06,4.7.9,10.88,3.86,13.6,3.13,2.89,9.31,2.46,14.15,3.49l1.47.3a1248.49,1248.49,0,0,1,190.13,51.84c1.66.59,3.37,1.07,5.8,1.83-.87-2.21-1.33-3.74-2-5.15-13.41-26.42-25.93-53.34-40.44-79.14a969.4,969.4,0,0,0-165.4-216.52,18.43,18.43,0,0,0-8.41-4.75c-21.29-4.72-42.62-9.26-64-13.49C1144.73,178.33,1135,177.28,1124.64,175.73ZM933.8,1704.13c-1.27-2-1.82-2.94-2.47-3.84-22.34-30.73-40.28-63.92-55.29-98.76-22.55-52.34-38.33-106.81-50.92-162.27-1.11-4.88-3.18-6.57-8-7.37a1136.2,1136.2,0,0,1-198.78-52.17c-1.16-.42-2.38-.65-4-1.09.43,1.39.6,2.19.91,2.93a696.42,696.42,0,0,0,95.15,164.77c40.26,51.81,86.83,97.47,136.31,140.31a15.09,15.09,0,0,0,6.61,3.12c15.32,3.19,30.65,6.35,46,9.13C910.45,1700.89,921.61,1702.3,933.8,1704.13Zm331.4-513.25c-5.59,71.13-16.66,140.72-31.93,210.28,2.84-.53,4.77-.87,6.69-1.26,71.58-14.23,141.24-34.84,208.62-63a9.85,9.85,0,0,0,6.31-6.94c10.22-35,20.61-69.92,30.8-104.91,1.65-5.66,2.56-11.53,3.88-17.64C1414.8,1196.85,1340.43,1191.8,1265.2,1190.88ZM784.05,688.72c10.71-70,21.32-139.32,31.92-208.6C741.22,493.78,668,514.56,597.79,545.24a9,9,0,0,0-4.12,5A848.55,848.55,0,0,0,565.3,651.66c-1.18,5.45-2.22,10.92-3.39,16.69A1521.56,1521.56,0,0,0,784.05,688.72Zm446.39-214c8.85,57.72,17.44,113.68,26.06,169.87,72-13.72,143.46-29.77,215.14-48-5.82-16.75-11.45-32.75-16.88-48.81a10.72,10.72,0,0,0-6.82-7.1c-37.31-15.31-75.2-29-114.1-39.61C1299.66,491.78,1265.18,483.57,1230.44,474.76Zm-649.31,804c5.23,17.42,10.37,34.26,15.29,51.16a8.83,8.83,0,0,0,5.63,6.23A1002.5,1002.5,0,0,0,796.59,1397c6.57,1.36,13.18,2.56,18.92,3.67-8.83-56.15-17.61-112-26.43-168C719.64,1245.15,650.61,1260.32,581.13,1278.76Zm1294.24,59.52c-25.36,50.18-54.38,97.59-90.32,142.32,7.39-.42,13.49-.38,19.49-1.16,39.58-5.15,72.64-23.61,102-49.9,14.33-12.84,16.14-33.88,9.77-48.11C1907.74,1362.34,1892.61,1349.7,1875.37,1338.28ZM261.57,400.53a87.5,87.5,0,0,0-32.54,1c-35.82,7.84-63.05,28.7-84.21,57.65-11.58,15.84-10.89,33.09-.3,49.62,7.39,11.53,18.08,19.43,29.92,25.87,3.86,2.1,7.89,3.88,12,5.9.8-1.75,1.27-2.8,1.75-3.84C209.82,489.91,229.77,442.24,261.57,400.53Zm1265.05,812.08c-9.85,34.51-19.37,67.86-29.06,101.78,44.2-22.3,86.11-47.61,122.57-81.08-.14-.52-.29-1-.44-1.56ZM524.56,662c8.44-31.92,16.61-62.86,24.81-93.91-39.71,20.58-77.58,44.27-112.91,71.92.1.5.2,1,.31,1.5Zm970.12-100.3,9.2,27,25-7.5c0-.45,0-.9,0-1.35ZM553.22,1313.58c.25-.32.51-.63.77-.95-2.75-7.93-5.51-15.86-8.38-24.15l-26,7.5Z" transform="translate(-4.85 -6.37)" fill="#fccc1b"/><path d="M1494.68,561.67l34.14,18.17c0,.45,0,.9,0,1.35l-25,7.5Z" transform="translate(-4.85 -6.37)" fill="#0f0f2d"/><path d="M792,1672l.66.45-.44.15c0-.23-.06-.46-.1-.69Z" transform="translate(-4.85 -6.37)" fill="#080a2e"/><path d="M1455.83,189.1c-5.45,9.43-10.5,18.15-15.53,26.87-3.34,5.77-6.57,11.6-10,17.3s-8,7-13,4.41c-5.34-2.78-7.06-7.78-4-13.56,11-20.55,22.24-41,33.41-61.46,2.61-4.79,6.58-6.82,12-5.93,6.33,1,11.35,5.14,12.42,11.38q3.25,18.94,5.76,38c1.35,10.24,2.19,20.54,3.28,30.81.14,1.29.43,2.57.83,4.92,3.9-5.87,7.28-10.93,10.62-16,5.94-9.05,11.76-18.19,17.82-27.16,5-7.4,14.68-6.91,18.39,1.27a11.71,11.71,0,0,1-.81,9.67c-13.1,19.7-26.64,39.1-40.1,58.55-2.52,3.64-5.88,6.1-10.6,4.93-5.76-1.44-10.21-4.94-11.17-10.88-1.47-9-2-18.2-3.09-27.29-1.71-14.39-3.53-28.76-5.33-43.14A19.79,19.79,0,0,0,1455.83,189.1Z" transform="translate(-4.85 -6.37)" fill="#f9cb1b"/><path d="M725,159.29c-1.45-4-2.38-6.58-3.35-9.16-5-13.24-10.08-26.45-14.92-39.74-2.72-7.46.73-12.88,8.54-14,5.15-.77,8.48,1.46,10.67,7.59,6.43,18,12.75,36.1,19.11,54.16,1.27,3.61,2.64,7.19,3.84,10.82,1.4,4.26,2.3,8.68-1.57,12.08s-8.69,5.23-13.87,3.24a77.78,77.78,0,0,1-10.64-5.43c-17-9.81-34-19.71-51-29.55-.94-.54-2-.89-3.9-1.73,6.58,14.8,12.78,28.72,19,42.64.88,2,1.75,4,2.44,6,1.67,5-.25,9.42-4.9,11.59-4.81,2.24-9.41,1-12.13-3.49-1.79-3-3.15-6.24-4.65-9.4Q655,168.24,642.42,141.57c-3.33-7.06-3-10.62,1.25-15.06,4.69-4.86,11.1-6.3,17.4-3,14.89,7.82,29.63,15.93,44.34,24.08C711.6,151,717.57,154.85,725,159.29Z" transform="translate(-4.85 -6.37)" fill="#f9ca1b"/><path d="M1611.16,285.83c-1,16.4-11.05,28.8-25.68,37.62-13.81,8.33-28.43,7.57-41.6-1.23-12.56-8.39-24.26-18.12-36-27.64-5-4.06-5.4-8-1.67-13.18q20.08-28,40.62-55.71c3.46-4.67,8-5.37,13.3-2.05a128.07,128.07,0,0,1,14.48,10.62c8.67,7.26,17.43,14.46,25.5,22.35C1607.63,264,1611,273.59,1611.16,285.83Zm-85.56,4.72c6.9,5.36,13.27,10.72,20.06,15.47,8.35,5.86,17.25,5.6,25.81.38a45.07,45.07,0,0,0,17.6-19.9c3.2-6.87,2.82-13.74-1.23-20-6.41-9.95-16.18-16.31-25.52-23.5Z" transform="translate(-4.85 -6.37)" fill="#f9cb1b"/><path d="M1208.37,113.17c4.41,7.92,9,15.72,13.08,23.74,1.49,2.9,2,6.32,2.79,9.56,1,4.17,1.72,8.35-3.4,10.67a11.4,11.4,0,0,1-13.43-3.57A31.91,31.91,0,0,1,1204,147c-2.69-6.45-5.41-12.9-7.8-19.46-4.5-12.32-12.88-19.08-27-18.87-1.33,7.45-2.73,15.25-4.13,23-.29,1.64-.53,3.29-.91,4.91-1.62,6.94-5.69,9.76-12.23,8.53-5.8-1.1-8.61-5.23-7.65-12,2.32-16.15,4.8-32.28,7.25-48.41,1-6.75,2-13.5,3.23-20.21,1.13-6.11,4.37-9.38,10.4-8.29,18.64,3.34,37.23,7,55.62,11.51,7,1.71,12.46,6.92,15.6,13.88a21.09,21.09,0,0,1-14.67,29.5C1217,112.15,1212.23,112.6,1208.37,113.17ZM1171.5,95.28c9,1.63,17.14,3.18,25.32,4.55a37.59,37.59,0,0,0,7,.32C1210.84,100,1215,97,1216,91.47a10.91,10.91,0,0,0-7.86-12.84c-10.41-3.1-21.13-5.19-32.2-7.82Z" transform="translate(-4.85 -6.37)" fill="#f9ca1b"/><path d="M503.5,269.26l-36.65,29.92c6.68,7.8,13.11,15.14,19.36,22.63,4.58,5.5,4.4,10.55-.19,15.09-4.84,4.79-10.75,4.65-15.69-.74-14.17-15.47-28.22-31.05-42.32-46.59-1.45-1.6-2.94-3.17-4.34-4.82-5.12-6-4.71-11.29,1.24-16.44,5.57-4.83,11.21-4.54,16.15,1,5.41,6.08,10.67,12.3,16.16,18.64l37.33-30.47c-4.95-6.48-9.83-12.8-14.62-19.17-4.92-6.53-4.16-12.05,2.21-16.68,6.08-4.42,11.41-3.47,16.19,3.08q20,27.42,40,54.91c2.85,3.9,4.27,8,1.58,12.5-4.14,7-12.27,7.72-17.47,1.42s-10-12.88-15-19.33C506.32,272.8,505.18,271.39,503.5,269.26Z" transform="translate(-4.85 -6.37)" fill="#f9cb1b"/><path d="M1691.47,355.21a63,63,0,0,1-1.1,7.25c-1.74,6.08-5.38,8.79-10.29,8a11.57,11.57,0,0,1-9.44-11.74,31.31,31.31,0,0,1,.51-4,28,28,0,0,0-17.56-31.49c-3.64-1.43-7.51-2.56-10.78.62s-2.37,7.26-.6,10.68c3.28,6.35,7.22,12.34,10.62,18.63,3.72,6.86,7.57,13.7,10.57,20.88,3.46,8.3,3.49,16.66-3.13,23.8-6.79,7.32-15.48,9.72-24.64,6.68-21.26-7.05-35.35-21.92-42.8-42.86a26.29,26.29,0,0,1,1-19.56c2.23-5.07,5.8-7,10.18-6,4.69,1.13,8.43,5.82,8.18,10.61a20.43,20.43,0,0,1-1.23,5.82c-3.23,8.79-1.41,16.72,5.15,22.91,4.6,4.34,10,8.57,15.77,10.77,8.56,3.24,15.11-3.57,12.41-12.36-1.44-4.69-4.09-9.07-6.55-13.38-3.54-6.22-7.65-12.11-11-18.4a56.89,56.89,0,0,1-5.16-12.92c-3.9-15.54,8.59-28.07,24.21-24.51a32.07,32.07,0,0,1,7.53,2.58c16,8.32,28.21,20.46,35.31,37.24C1690.1,348.05,1690.65,352.08,1691.47,355.21Z" transform="translate(-4.85 -6.37)" fill="#f9ca1b"/><path d="M1009.25,79c0-8.5,0-16.47,0-24.44,0-8.39,4.87-12.6,13.11-11.53,5.32.69,8.72,3.85,8.69,9.23q-.15,36.46-.79,72.94c-.11,6.14-4.12,9.48-10,9.46s-9.58-3.32-9.91-9.64c-.44-8.31-.3-16.65-.39-25,0-1.8,0-3.59,0-6.32l-45,1.84c.68,10.52,1.41,20.28,1.9,30,.34,6.78-2.73,10.71-8.49,11.48-6.46.87-10.78-2.43-11.51-9.41C945.42,114,944.3,100.43,943,86.83c-.9-9.78-1.94-19.55-2.71-29.34-.6-7.61,3.66-12,11.19-12,6.19,0,10,3.38,10.56,9.61.73,8.44,1.27,16.89,1.92,25.71Z" transform="translate(-4.85 -6.37)" fill="#f9ca1b"/><path d="M539,200.84l11.75,18,4.65-2.85,33.26-20.26a28,28,0,0,1,2.63-1.44c4.6-2.11,8.37-1.48,10.11,1.91,2.22,4.35,0,7.52-3.46,9.71-9.45,5.92-19.07,11.57-28.59,17.38-3.54,2.16-7,4.48-11.09,7.12l13.61,21c1.79-1.09,3.41-2.09,5-3.08q17.94-10.85,35.91-21.68a21,21,0,0,1,4.52-2.06c3.41-1,6.34-.22,8.16,3s1,6.15-1.52,8.58a24.8,24.8,0,0,1-4,2.92c-15.44,9.53-30.93,19-46.32,28.58-9.17,5.71-12.76,5-18.94-4q-17.24-25.13-34.51-50.22c-6.1-8.88-5.54-13.51,3.62-19.37,17-10.85,34.22-21.25,51.36-31.83a12.8,12.8,0,0,1,1.33-.68c5.17-2.48,9.2-2,11.22,1.26,2.16,3.49.71,7.56-4.37,10.71-13.17,8.15-26.44,16.11-39.67,24.16C542.24,198.61,540.89,199.57,539,200.84Z" transform="translate(-4.85 -6.37)" fill="#f8ca1b"/><path d="M771.1,93.73l6.3,21c5.22-1.42,10.13-2.82,15.06-4.1,9-2.35,18-4.69,27.08-6.91,1.91-.47,4.19-1.07,5.86-.44,2.09.79,4.85,2.54,5.25,4.32.45,2.08-.8,5.14-2.33,6.86-1.38,1.54-4.09,2-6.3,2.65-12.37,3.35-24.76,6.58-37.14,9.88a37,37,0,0,0-3.54,1.37c2.36,8,4.66,15.72,6.94,23.43,14.89-3.8,29.36-7.54,43.87-11.16,2.23-.56,4.87-1.37,6.83-.67,2.33.82,5.32,2.84,5.84,4.9s-1.06,5.31-2.72,7.15c-1.37,1.52-4.12,1.94-6.35,2.54-16.54,4.46-33.13,8.76-49.65,13.3-10.51,2.88-13.77,1.37-17.12-9q-9.63-29.67-19.1-59.4c-2.87-9-1-13.35,8-15.94,19.51-5.57,39.17-10.6,58.81-15.73,1.85-.48,4.27-.77,5.81,0,2,1,4.23,3,4.7,5,.42,1.73-.93,4.73-2.47,5.87-2.29,1.71-5.36,2.53-8.21,3.28C801.64,85.94,786.67,89.73,771.1,93.73Z" transform="translate(-4.85 -6.37)" fill="#f8ca1b"/><path d="M1076.45,59.78c-.48,7.59-.91,14.36-1.38,21.68,6.66.52,13.08.93,19.48,1.54,8.45.81,16.9,1.62,25.32,2.73,5.51.73,8.22,3.53,7.86,7.3-.4,4.06-3.74,6.38-9.41,5.94-13.28-1-26.55-2.27-39.82-3.4-1.29-.1-2.6,0-4.32,0-.51,8.12-1,16.18-1.54,24.58,10.77.94,21,1.8,31.26,2.76,5.63.54,11.28,1.08,16.87,1.95,5.42.84,8.09,4,7.5,8.16-.56,4-3.72,6.32-9,5.9q-29.13-2.32-58.22-5c-6-.57-9.12-4-8.92-10q1.13-34.71,2.75-69.4c.31-6.44,4.48-9.33,12.53-9,10,.41,20,1.07,29.91,1.88,8.8.72,17.57,1.77,26.34,2.72a48.56,48.56,0,0,1,5.92.89c3.88.92,6.87,2.83,6.58,7.42-.23,3.83-3.34,6.27-8.34,6-6.14-.35-12.25-1.28-18.38-1.83C1098.69,61.59,1087.92,60.74,1076.45,59.78Z" transform="translate(-4.85 -6.37)" fill="#f8ca1b"/><path d="M1400.14,173.79c0,13,.23,26-.09,38.92-.17,6.89-3.63,9.94-9.44,9.65s-9.6-4.28-9.74-10.47a94.53,94.53,0,0,1,.24-13.47c.5-4.11-1.13-5.88-4.7-7.38-10-4.2-19.79-8.7-29.6-13.25-2.63-1.22-4.4-1.13-6.49,1.15a133.77,133.77,0,0,1-10.84,10.32c-4.57,3.94-9.75,3.6-13.72-.6-3.76-4-3.88-8.53.61-12.75q27.8-26.19,55.94-52c5.48-5,11.77-5.5,18.53-2.34S1401,130,1401,137.34c.07,12.15,0,24.3,0,36.45Zm-46.65-7.95,28.58,12.7V139C1372.26,148.25,1363.18,156.75,1353.49,165.84Z" transform="translate(-4.85 -6.37)" fill="#f9cb1b"/><path d="M391.09,323.14c10.15,10.57,19.88,20.8,29.72,30.92,4.75,4.89,9.76,9.54,14.57,14.38,5.71,5.73,6.08,11,1.26,16.1s-10.58,5-16.57-.54q-22-20.38-43.87-40.83c-.6-.56-1.24-1.08-2.32-2-5.5,6.1-10.85,12.18-16.37,18.08-2,2.16-4.19,4.68-6.8,5.64-2.21.82-5.86.49-7.59-.91-1.49-1.22-2-4.85-1.47-7.06.62-2.59,2.52-5.09,4.42-7.1q25.71-27.23,51.66-54.21c1.48-1.53,3.28-3.42,5.17-3.73,2.81-.47,6.46-.65,8.62.77,3.26,2.13,2.38,6,.4,8.95a44.85,44.85,0,0,1-5.57,6.37C401.22,313.16,396,318.28,391.09,323.14Z" transform="translate(-4.85 -6.37)" fill="#f9cb1b"/><path d="M893.39,68.73c2,14.17,4,28.14,6.08,42.1,1,7.08,2.2,14.14,3.15,21.23s-2,11.55-8.19,12.53-10.49-2.24-11.75-9.31c-3.33-18.67-6.47-37.38-9.69-56.07-.39-2.27-.82-4.53-1.34-7.39-6.66,1.24-13,2.45-19.3,3.57a59.67,59.67,0,0,1-8.39,1.1c-3.83.13-7-1.34-7.87-5.44s1.59-6.57,5-8.15a18,18,0,0,1,4.74-1.48q34.74-5.52,69.51-10.92a15.65,15.65,0,0,1,3.49-.13c4.15.29,7.7,1.68,8.18,6.4s-2.79,7.14-6.78,7.85C912.39,66,904.44,66.88,896.53,68,895.59,68.12,894.67,68.42,893.39,68.73Z" transform="translate(-4.85 -6.37)" fill="#f8ca1b"/><path d="M1263.44,154c12.23,4.13,24,8.07,35.8,12.14a33.73,33.73,0,0,1,7.64,3.57c2.9,1.93,4.5,5.25,2.52,8.2-1.41,2.08-4.49,3.55-7.09,4.13-2,.46-4.52-.72-6.73-1.43-14.56-4.73-29.09-9.59-43.66-14.28-9.55-3.08-11.5-6.41-8.85-15.92q8.87-31.75,17.76-63.5c2.35-8.35,9-11.06,16.64-6.91,4.9,2.67,6.45,6.5,4.59,12.76-4.42,14.84-9,29.62-13.56,44.43C1266.81,142.75,1265.17,148.3,1263.44,154Z" transform="translate(-4.85 -6.37)" fill="#f9ca1b"/><path d="M1414.27,1678.35c8.59,16,16.68,30.87,24.66,45.84,3.53,6.62,2.33,11.64-3.31,15.08-6.54,4-12.42,2.27-16.07-4.89q-13.48-26.48-26.85-53c-1.21-2.38-2.44-4.74-3.64-7.12-4.27-8.38-4.19-12.82.29-17.42,4.66-4.79,10-5.26,17.93-1.8,11,4.79,21.92,9.69,33,14.16s22.27,8.38,33.42,12.54l.8-1q-2.65-4.35-5.33-8.69c-7.45-12-15-24-22.33-36.11-4-6.53-2.57-12,3.62-15.13,5-2.57,9.33-1.28,13.12,4.39,7.4,11.07,14.61,22.27,21.9,33.42q8.07,12.33,16.13,24.67c3,4.54,5.9,9.12,2.38,14.71-3.34,5.3-11.64,9.27-17.86,7.47-10.05-2.91-20-6.26-29.79-10C1442.61,1690.17,1429,1684.38,1414.27,1678.35Z" transform="translate(-4.85 -6.37)" fill="#f9cb1b"/><path d="M486.34,1554.5c6.89,1.87,13.68,2.72,19.55,5.5,20.12,9.53,36.26,23.08,41.55,46.09,5.39,23.42-18.09,64-55.77,53.54-21-5.82-37.07-18.94-47.05-38.38-11.67-22.74-1.42-49.84,22.75-61C473.27,1557.48,479.94,1556.38,486.34,1554.5Zm8,20.29c-16.62,0-33.54,17.17-33.58,34.11,0,16.36,17,32.85,34.05,33,16.23.14,33.07-18,32.89-35.35C527.52,1590.58,511,1574.81,494.33,1574.79Z" transform="translate(-4.85 -6.37)" fill="#f9cb1b"/><path d="M1576.84,1600.7c-4.51,3.74-8.64,7.34-12.95,10.7-2.48,1.93-5.05,4.13-8,5-2.1.64-5.66.09-7-1.37s-1.26-4.83-.79-7.16c.35-1.73,2.11-3.36,3.59-4.64,7.46-6.4,14.94-12.78,22.58-19s11.82-5.75,18.3,1.51l10.65,11.93c2.78,3.12,3.86,6.74,2.21,10.64-11.52,27.32-30.5,47.05-59.73,54.36-26.41,6.61-51.69-13.35-54-41-1.11-13.42,3.36-25,11.72-35.09,11-13.33,24.06-24.2,41.51-27.85a40.62,40.62,0,0,1,15.72.32c6.45,1.27,9,5.26,8,10.07-1.22,5.71-6.71,10.08-12.32,9.66a23.47,23.47,0,0,1-5.9-1c-16.06-5.6-41.26,15.2-38.6,35,1.84,13.73,9,24.08,21.2,30.18,11.4,5.67,22.09,1.92,31.87-5a63.33,63.33,0,0,0,20-23.31,5.93,5.93,0,0,0-.52-5.06A105.19,105.19,0,0,0,1576.84,1600.7Z" transform="translate(-4.85 -6.37)" fill="#f9ca1b"/><path d="M1622.74,1549.41l18.36,18.37c9.63-10.25,19.54-20.77,29.4-31.33,3.06-3.29,5.86-6.83,9-10.06,1.71-1.76,3.64-3.81,5.84-4.46s5.65-.6,7.2.73,2.2,4.75,1.8,7c-.43,2.43-2.21,4.87-4,6.76q-23,24.64-46.29,49.06a26.89,26.89,0,0,1-3,2.63c-6.59,5.13-10.75,4.9-16.52-1.16q-18.43-19.37-36.74-38.84-4.3-4.53-8.59-9.07c-7-7.37-6.92-11.86.28-19.19,6.42-6.53,13-12.91,19.3-19.57,7.2-7.62,14.14-15.5,21.25-23.22,5-5.45,9.39-6.56,12.81-3.4s2.8,7.65-2.2,13.15c-11.18,12.33-22.51,24.53-33.67,36.65l16.1,15.2c6.38-6.66,13.75-14.28,21-22,3.66-3.87,7.09-8,10.76-11.83,1.58-1.67,3.31-3.75,5.34-4.32,2.24-.62,5.66-.58,7.17.76s2.15,4.83,1.61,7c-.64,2.55-2.71,4.91-4.59,7C1643.85,1526.76,1633.17,1538.18,1622.74,1549.41Z" transform="translate(-4.85 -6.37)" fill="#f9ca1b"/><path d="M769.2,1744.48l44.85,12.85c2-7.68,3.86-14.87,5.78-22a43,43,0,0,1,2.09-6.64c2.31-5.1,6.89-6.94,12.45-5.27,5.23,1.58,8.06,5.6,7.16,11s-2.24,10.76-3.47,16.11q-6.42,28-12.92,55.93c-2,8.62-8.53,11.83-16.59,8.36-5.13-2.21-7.29-6.25-5.9-12.23,2.34-10,5-20,7.63-30.39L764.54,1759c-3.06,9.57-6.09,19.17-9.22,28.73-2.58,7.85-8.6,10.49-16.09,7.19-6.18-2.73-8.12-7.27-5.71-14.41,4.57-13.56,9.33-27.06,14-40.58,3.16-9.12,6.22-18.28,9.5-27.35,2.45-6.78,6.63-9.26,12.46-7.8,6.63,1.66,9.75,6.52,7.88,13.16C775,1726.6,772.12,1735.1,769.2,1744.48Z" transform="translate(-4.85 -6.37)" fill="#f9ca1b"/><path d="M1210.43,1762l45.18-11.79c-2.52-8.7-4.9-16.78-7.19-24.89-1.83-6.47-.61-10.54,3.78-13.19,6.61-4,13.32-1.69,15.93,5.88,4.12,12,7.88,24,11.75,36.07q5.28,16.4,10.45,32.82c2.75,8.78-2.39,15.74-11.61,15.77-5.21,0-8.4-2.79-9.87-7.6-2.58-8.43-5-16.9-7.54-25.36-.46-1.55-1-3.08-1.52-4.78l-45.93,12c2.29,9.94,4.59,19.62,6.74,29.33,2,8.82-3.65,15.17-12.66,14.53-5.3-.38-8.44-3.4-9.74-9.7q-6.14-29.83-12.18-59.68c-.79-3.91-1.7-7.81-2.35-11.75-1.08-6.57,1.73-10.77,8-12.23,5.95-1.38,10.7,1.44,12.39,7.79,1.84,6.91,3.32,13.92,5,20.88C1209.41,1757.82,1209.84,1759.57,1210.43,1762Z" transform="translate(-4.85 -6.37)" fill="#f9ca1b"/><path d="M600.73,1729.15c-4.07-.78-8.27-1.17-12.18-2.43a88.09,88.09,0,0,1-36.21-22.33c-11.68-11.88-14-24.87-5.54-39.11,9-15.17,19.08-29.67,29-44.28,3.5-5.16,9.3-5.69,14.53-2.16s6.53,8.62,3.06,14.35c-7.85,13-16,25.72-24,38.59a47.86,47.86,0,0,0-3.51,6.59c-3.82,9.06-2.4,16.12,5.33,22.27a59.16,59.16,0,0,0,14.11,8.27c9.41,3.83,16.83,1.47,22.58-7,3.81-5.63,6.92-11.75,10.24-17.7,4.95-8.86,9.73-17.82,14.74-26.65,3.73-6.58,8.65-8.24,14.48-5.21,6.16,3.2,7.84,8.44,4.42,15.16-7.4,14.53-14.87,29-22.54,43.42C623.2,1722.19,614.14,1729,600.73,1729.15Z" transform="translate(-4.85 -6.37)" fill="#f9cb1b"/><path d="M919.08,1755.24c-1,7.31-1.87,14.34-2.88,22.09,7.59.91,14.94,1.9,22.32,2.65s14.61,1.23,21.91,1.88a20.55,20.55,0,0,1,4.42.76c3.33,1,5.5,3.16,5.25,6.93s-2.78,5.73-6.15,6.17a40.12,40.12,0,0,1-9-.14c-12.27-1.16-24.53-2.45-36.8-3.66-1.13-.11-2.28,0-3.84,0-1.05,8.28-2.1,16.48-3.21,25.23,2.6.37,5,.8,7.4,1,14.1,1.35,28.2,2.61,42.3,4,2.8.27,6,.21,8.21,1.6s4.66,4.5,4.52,6.69-3,4.79-5.33,6.12c-1.78,1-4.56.67-6.85.45-20.56-2-41.12-3.93-61.64-6.31-10.35-1.2-13-5.4-11.42-15.7q4.95-31.85,9.84-63.7c1.55-10,4.74-12.6,14.74-11.59q27.09,2.74,54.19,5.51a25.21,25.21,0,0,1,3.44.58c3.63.9,6,3.06,5.88,7-.11,4.24-2.85,6.63-6.7,6.68a177.46,177.46,0,0,1-18.43-1C940.71,1757.57,930.15,1756.38,919.08,1755.24Z" transform="translate(-4.85 -6.37)" fill="#f8ca1b"/><path d="M1307.43,1779.66q3.1-39.84,6.2-79.68c.5-6.42,3.7-10.82,9.68-13.35q9.24-3.93,16.81,2.39,30.69,25.59,61.27,51.32c5.37,4.52,5.94,8,2.59,12.91s-10.6,7.23-15.32,4.14a102.63,102.63,0,0,1-13.29-10.51c-2.63-2.41-4.74-2.53-7.91-1.16q-17,7.3-34.2,14c-3,1.17-4,2.74-4.14,5.79a130.25,130.25,0,0,1-1.36,15.42c-1.22,7.49-9.52,11.45-16.51,8.32C1306.87,1787.26,1306.52,1783.64,1307.43,1779.66Zm23.14-33.78,29.92-12.33-29.92-28.7Z" transform="translate(-4.85 -6.37)" fill="#f9ca1b"/><path d="M1124.25,1834.43c-25.53.56-44-14.14-47.55-37.76-4-26.75,9.7-48.46,35.26-55.42,14.43-3.93,28.92-4,42.15,3.81,4.93,2.91,9.13,7.64,12.54,12.35,2.88,3.95,1.29,8.35-2.31,11a9.9,9.9,0,0,1-12-.4,77.31,77.31,0,0,1-5.58-5.72c-7.94-8.51-17.68-10-28.43-7.12-10.3,2.77-16.53,9.8-19,19.9a45.35,45.35,0,0,0,1.91,28c4.48,11.44,13.73,16.9,27,16.23,13.75-.69,23.21-7.32,26.54-18.85,1.34-4.63,2.68-9,8.25-10.17,7.06-1.52,12.5,2.74,11.9,10-.89,10.76-6.92,18.52-15.51,24.45C1150.09,1831.08,1138.74,1834.11,1124.25,1834.43Z" transform="translate(-4.85 -6.37)" fill="#f9ca1b"/><path d="M1026.91,1805.53c-8,9.78-15.77,19.26-23.45,28.84-3.68,4.6-8.22,6.62-14,5.57-6-1.1-8.89-5.88-6.31-11.48a41.55,41.55,0,0,1,6.19-9c7.94-9.39,16.05-18.64,24.16-28-6.21-8.82-12.19-17.2-18.05-25.67a75.92,75.92,0,0,1-4.83-8.15c-2-3.84-2.61-7.64,1.53-10.67,3.66-2.67,9.8-2.54,12.89.84a109.51,109.51,0,0,1,8.13,10.73c4.6,6.48,9.09,13,14.1,20.25,6.67-9.42,12.9-18.2,19.1-27,2.54-3.59,5.07-7,10.19-7,7,.06,10.84,5,7.79,11.25-2.74,5.65-6.47,10.84-10,16.06-4.31,6.31-8.9,12.42-13.7,19.08q11.55,13.77,23.07,27.5a89.16,89.16,0,0,1,6,7.39c4,5.94,1.66,11.67-5.27,13.34A12.3,12.3,0,0,1,1051,1835C1043.1,1825.27,1035.17,1815.63,1026.91,1805.53Z" transform="translate(-4.85 -6.37)" fill="#f9ca1b"/><path d="M419,1526.94c14.08-1.9,27.27-3.58,40.43-5.5,4.78-.7,8.93-.12,12.32,3.57,5.5,6,3.56,13.1-4.44,14.58-10,1.84-20.08,2.94-30.14,4.34a30.15,30.15,0,0,1-6.45.64c-11.69-1-20.24,4.2-27.3,13a77.25,77.25,0,0,1-9.62,9.43c-5.24,4.56-11,3.82-16.25-1.78-5-5.35-5.45-11.2-.68-16,6.25-6.22,12.95-12,19.23-18.18a11.7,11.7,0,0,0,3-5.87c2.74-15.23,5.07-30.53,7.88-45.74,1.4-7.6,4.34-10.14,9.3-9.37a11.81,11.81,0,0,1,9.75,13c-1.85,12.67-4.2,25.27-6.33,37.9C419.42,1522.63,419.28,1524.25,419,1526.94Z" transform="translate(-4.85 -6.37)" fill="#f9ca1b"/><path d="M711.4,1701.41c-2.54,6.08-5,11.87-7.39,17.68-6,14.45-11.86,28.93-17.9,43.36-3.38,8.08-10,10.11-17.36,5.56-5.29-3.26-6.74-7.87-4-14.18,6.5-14.95,13.17-29.82,19.77-44.73,2.29-5.16,4.57-10.33,7.09-16-6.81-3.21-13.56-6.28-20.2-9.57-2.2-1.09-4.86-2.31-6-4.24-1.22-2.13-2-5.78-1-7.6,1.2-2.07,4.51-3.35,7.14-4,1.66-.4,3.82.84,5.64,1.62q30.06,12.79,60.08,25.69a43.12,43.12,0,0,1,4.51,2.12c3.78,2.2,5.48,5.48,3.79,9.68s-5.3,5-9.16,4a86.45,86.45,0,0,1-10.37-3.58C721.32,1705.38,716.56,1703.45,711.4,1701.41Z" transform="translate(-4.85 -6.37)" fill="#f9ca1b"/><path d="M247,954.45c0-5.81-.22-11.28,0-16.72,1.44-30.26,3.34-60.5,10-90.17,2.25-10,.47-8.33,10.94-8.42a64.67,64.67,0,0,1,8.45.63c22.82,2.77,36.83,15.48,39,38.38A167.63,167.63,0,0,1,314,919.82c-3.21,20.36-15.55,31.72-36,34.41C267.86,955.55,257.47,954.45,247,954.45Z" transform="translate(-4.85 -6.37)" fill="#fbcc1b"/><path d="M631.71,961.55c.65-17.5,4-34.07,12.78-49.41,21.28-37.18,74-41.17,96.6-.49,15.11,27.17,19,55.7,6.12,84.9-11.84,26.82-33,39.38-59.2,36.27-28.27-3.36-48.74-22.36-54-50.47C632.8,975.5,632.47,968.48,631.71,961.55Z" transform="translate(-4.85 -6.37)" fill="#fccc1b"/></svg>