<?xml version="1.0" encoding="UTF-8" standalone="no"?>
<!-- Created with Inkscape (http://www.inkscape.org/) -->

<svg
   version="1.1"
   id="svg1"
   width="283.89334"
   height="106.66667"
   viewBox="0 0 283.89334 106.66667"
   sodipodi:docname="RotaryMBS-Simple_CMYK-C.eps"
   xmlns:inkscape="http://www.inkscape.org/namespaces/inkscape"
   xmlns:sodipodi="http://sodipodi.sourceforge.net/DTD/sodipodi-0.dtd"
   xmlns="http://www.w3.org/2000/svg"
   xmlns:svg="http://www.w3.org/2000/svg">
  <defs
     id="defs1" />
  <sodipodi:namedview
     id="namedview1"
     pagecolor="#ffffff"
     bordercolor="#000000"
     borderopacity="0.25"
     inkscape:showpageshadow="2"
     inkscape:pageopacity="0.0"
     inkscape:pagecheckerboard="0"
     inkscape:deskcolor="#d1d1d1">
    <inkscape:page
       x="0"
       y="0"
       inkscape:label="1"
       id="page1"
       width="283.89334"
       height="106.66667"
       margin="0"
       bleed="0" />
  </sodipodi:namedview>
  <g
     id="g1"
     inkscape:groupmode="layer"
     inkscape:label="1">
    <g
       id="group-R5">
      <path
         id="path2"
         d="m 999.949,498.496 c -22.883,-1.371 -45.437,-14.461 -59.472,-24.43 v 14.122 c 0,4.761 -3.848,8.589 -8.661,8.589 h -34.609 c -4.805,0 -8.676,-3.828 -8.676,-8.589 V 278.41 c 0,-4.777 3.871,-8.594 8.676,-8.594 h 34.609 c 4.813,0 8.661,3.817 8.661,8.594 v 144.988 c 7.789,6.528 31.976,24.668 60.783,27.188 4.43,0.414 7.86,4.113 7.86,8.59 v 30.726 c 0,2.414 -0.95,4.649 -2.73,6.239 -1.68,1.656 -4.07,2.558 -6.441,2.355 z M 729.754,368.105 c -20.356,-1.921 -29.996,-11.226 -29.996,-29.132 0,-11.043 3.008,-29.637 23.156,-29.637 23.996,0 56.527,9.051 56.895,9.141 v 0 52.289 z m 101.91,57.258 V 274.887 c 0,-2.535 -1.098,-4.899 -2.98,-6.516 -1.883,-1.648 -4.403,-2.383 -6.84,-2.062 -17.61,2.504 -25.973,8.007 -34.321,14.402 v 0 c -0.378,-0.16 -39.3,-15.871 -74.132,-15.871 -41.899,0 -65.938,26.469 -65.938,72.699 0,45.164 22.016,65.156 75.981,69.191 l 56.375,4.512 v 13.692 c 0,17.332 -10.309,27.269 -28.227,27.269 -24.687,0 -59.941,-2.883 -78.695,-4.562 -2.375,-0.246 -4.727,0.492 -6.543,2.066 -1.719,1.516 -2.809,3.805 -2.934,6.113 l -1.082,28.789 c -0.23,4.375 2.977,8.2 7.203,8.856 16.789,2.656 58.672,8.754 84.805,8.754 52.773,0 77.328,-24.442 77.328,-76.856 z M 111.551,533.621 H 92.5664 c -21.1719,0 -33.2461,-1.617 -39.3594,-2.82 v -89.668 c 10.125,-0.711 29.625,-1.735 55.824,-1.449 33.797,0.347 54.824,18.285 54.824,46.781 0,22.789 -13.75,47.156 -52.304,47.156 z M 220.66,281.875 c 1.129,-2.641 0.867,-5.707 -0.656,-8.184 -1.664,-2.449 -4.371,-3.875 -7.281,-3.875 h -40.211 c -3.422,0 -6.543,1.993 -7.852,5.11 l -51.535,115.941 c -25.6523,0.188 -47.9102,1.543 -59.918,2.406 V 278.41 c 0,-4.777 -3.8125,-8.594 -8.5703,-8.594 H 8.69922 C 3.90234,269.816 0,273.633 0,278.41 v 290.824 c 0,4.403 3.3125,8.079 7.69141,8.575 46.17579,5.214 83.09379,5.75 96.80059,5.75 4.719,0 7.196,-0.039 7.196,-0.039 88.601,0 107.156,-52.313 107.156,-96.114 0,-36.597 -17.465,-63.047 -53.391,-80.863 z m 1009.89,211.57 c -1.59,2.102 -4.09,3.332 -6.75,3.332 h -33.68 c -3.9,0 -7.27,-2.617 -8.29,-6.406 l -45.09,-170.07 h -3.5 l -45.14,170.07 c -0.97,3.789 -4.41,6.406 -8.34,6.406 h -33.58 c -2.7,0 -5.22,-1.23 -6.85,-3.332 -1.6,-2.132 -2.17,-4.871 -1.52,-7.429 l 49.67,-190.754 c 2.48,-9.461 11.21,-25.446 28.51,-25.446 h 9.65 c -0.85,-3.214 -1.7,-6.628 -2.65,-9.543 l -0.45,-1.445 c -2.71,-8.797 -6.75,-22.098 -31.32,-22.098 l -42.94,2.645 c -2.47,0.176 -4.8,-0.699 -6.54,-2.437 -1.76,-1.723 -2.7,-4.094 -2.58,-6.543 l 1.05,-22.493 c 0.14,-3.816 2.8,-7.031 6.54,-7.968 12.66,-3.133 36.84,-6.778 56.75,-7.532 0.95,-0.066 1.79,-0.066 2.72,-0.066 v 0 c 32.4,0 54.41,20.969 65.5,62.258 12.86,48.355 28.95,110.562 40.73,156.004 5.32,20.457 9.9,38.062 13.17,50.625 l 6.47,24.757 c 0.74,2.594 0.1,5.333 -1.54,7.465 z M 403.676,384.402 c 0,50.782 -13.797,70.524 -49.094,70.524 -36.605,0 -49.617,-18.434 -49.617,-70.524 0,-47.214 7.902,-72.761 49.617,-72.761 41.051,0 49.094,26.691 49.094,72.761 z m 52.73,0 c 0,-82.675 -31.422,-119.562 -101.824,-119.562 -70.781,0 -102.352,36.887 -102.352,119.562 0,81.489 31.571,117.817 102.352,117.817 69.484,0 101.824,-37.391 101.824,-117.817 z m 163.653,-77.754 1.5,-28.515 c 0.214,-4.254 -2.809,-8.106 -6.985,-8.891 -12.047,-2.207 -28.613,-4.937 -39.027,-4.937 -52.293,0 -68.227,20.011 -68.227,85.508 v 100.101 h -20.039 c -4.769,0 -8.617,3.906 -8.617,8.672 v 29.602 c 0,4.761 3.848,8.589 8.617,8.589 h 20.039 v 35.207 c 0,3.985 2.731,7.446 6.551,8.368 l 34.656,8.449 c 2.551,0.586 5.278,0.039 7.344,-1.578 2.082,-1.653 3.309,-4.133 3.309,-6.793 v -43.653 h 52.828 c 4.719,0 8.562,-3.828 8.562,-8.589 v -29.602 c 0,-4.766 -3.843,-8.672 -8.562,-8.672 H 559.18 v -92.777 c 0,-32.09 1.129,-43.219 23.648,-43.219 8.293,0 21.32,0.543 28.293,0.918 4.621,0.098 8.801,-3.371 8.938,-8.188"
         style="fill:#254998;fill-opacity:1;fill-rule:nonzero;stroke:none"
         transform="matrix(0.13333333,0,0,-0.13333333,0,106.66667)" />
      <path
         id="path3"
         d="m 1729.47,102.621 c -165.19,0 -299.66,134.465 -299.66,299.75 0,165.266 134.47,299.707 299.66,299.707 165.28,0 299.69,-134.441 299.69,-299.707 0,-165.285 -134.41,-299.75 -299.69,-299.75 z m 399.05,309.789 -0.08,1.125 -0.86,0.496 c -16.96,10.285 -39.21,16.078 -60.96,16.547 -0.43,2.887 -3.16,23.262 -3.5,26.164 20.8,5.891 40.73,17.188 54.7,31.649 l 0.73,0.672 -0.21,1.109 c -1.03,7.75 -3.98,18.551 -6.65,25.101 l -0.45,0.981 -1.05,0.266 c -19.13,5.46 -42.04,5.32 -63.08,0 -1,2.699 -8.78,21.48 -9.89,24.113 18.52,11.301 34.78,27.312 44.54,44.664 l 0.53,0.836 -0.39,1.086 c -2.8,6.668 -8.45,16.344 -12.95,22.461 l -0.61,0.84 h -1.15 c -19.69,0.429 -41.68,-5.606 -61.06,-16.04 -1.7,2.372 -14.32,18.797 -16.04,21.086 15.11,15.571 26.64,35.313 31.59,54.622 l 0.29,1.085 -0.74,0.821 c -4.5,5.926 -12.34,13.886 -18.23,18.535 l -0.81,0.609 -1.11,-0.164 c -19.36,-4.902 -39,-16.488 -54.62,-31.504 -2.39,1.825 -18.76,14.649 -21.13,16.575 10.43,18.406 16.54,39.707 16.54,59.347 0,0.551 -0.1,2.653 -0.1,2.653 l -0.83,0.636 c -6.04,4.746 -15.61,10.227 -22.56,13.051 l -0.95,0.348 -0.88,-0.469 c -17.37,-9.66 -33.3,-25.82 -44.48,-44.332 -2.8,1.082 -22.72,9.453 -25.35,10.594 2.63,10.433 4.26,21.179 4.26,31.914 0,10.804 -1.3,21.445 -4.26,31.074 l -0.24,1.004 -1.07,0.41 c -6.57,2.82 -17.09,5.707 -24.87,6.828 l -1.16,0.184 -0.69,-0.75 c -14.37,-13.934 -25.65,-33.778 -31.62,-54.606 -2.96,0.496 -23.56,3.051 -26.7,3.375 -0.27,21.586 -6.08,43.68 -16.35,60.86 l -0.51,0.98 -1.09,0.047 c -7.43,0.941 -18.69,0.941 -25.96,0 l -1.16,-0.047 -0.51,-0.98 c -10.19,-16.996 -15.94,-39.09 -16.31,-60.793 -3,-0.391 -23.92,-2.946 -26.95,-3.442 -5.99,20.93 -17.29,40.86 -31.6,54.723 l -0.8,0.805 -1.17,-0.172 c -7.7,-1.145 -18.36,-4.004 -24.94,-6.684 l -0.99,-0.43 -0.39,-1.003 c -2.7,-9.782 -4.15,-20.559 -4.15,-31.465 0,-10.532 1.68,-21.36 4.15,-31.684 -2.62,-1.129 -22.72,-9.777 -25.42,-10.863 -11.27,18.535 -27.23,34.793 -44.56,44.574 l -0.94,0.551 -1.09,-0.367 c -6.66,-2.922 -16.3,-8.489 -22.4,-13.071 l -0.95,-0.578 c 0,0 0,-2.324 0,-2.875 0,-19.433 6.02,-40.812 16.36,-59.347 -2.25,-1.868 -17.37,-13.692 -19.64,-15.528 -15.57,15.055 -35.27,26.633 -54.7,31.664 l -0.99,0.203 -0.75,-0.711 c -5.96,-4.464 -13.98,-12.32 -18.56,-18.273 l -0.67,-0.855 0.25,-1.04 c 4.86,-19.292 16.44,-39.039 31.46,-54.75 -1.64,-2.308 -14.81,-19.453 -16.64,-21.824 -18.84,10.535 -40.78,16.75 -60.88,16.469 l -1.01,-0.047 -0.66,-0.894 c -4.4,-5.852 -9.96,-15.301 -13.01,-22.5 l -0.43,-0.946 0.53,-0.98 c 9.63,-17.285 25.94,-33.426 44.55,-44.723 -1.01,-2.652 -8.64,-21.254 -9.81,-23.953 -21.39,5.301 -44.19,5.363 -63.22,-0.184 l -1.02,-0.265 -0.38,-0.918 c -2.81,-6.668 -5.71,-17.18 -6.82,-25.106 l -0.13,-1.082 0.76,-0.839 c 13.89,-14.278 33.83,-25.571 54.66,-31.356 -0.43,-2.949 -3.12,-23.523 -3.49,-26.352 -21.66,-0.41 -43.95,-6.132 -60.96,-16.343 l -0.94,-0.535 -0.1,-1.106 c -0.43,-3.723 -0.71,-8.359 -0.71,-13.047 0,-4.648 0.28,-9.242 0.71,-12.953 l 0.1,-1.062 0.94,-0.489 c 17.01,-10.183 39.11,-16.015 60.9,-16.336 0.43,-2.98 3.33,-24.113 3.7,-27.015 -20.89,-6.129 -40.67,-17.559 -54.56,-31.824 l -0.75,-0.887 0.1,-0.961 c 1.21,-7.813 4.07,-18.574 6.77,-25.055 l 0.42,-0.969 0.99,-0.324 c 19.28,-5.504 42.08,-5.269 63.25,0 1.08,-2.676 9.27,-21.39 10.39,-24.09 -18.52,-11.097 -34.75,-27.144 -44.56,-44.5 l -0.46,-0.968 0.36,-0.993 c 2.84,-6.808 8.52,-16.449 13.04,-22.464 l 0.68,-0.86 0.97,-0.039 c 19.9,-0.281 41.88,5.61 60.97,16.145 1.78,-2.239 14.68,-19.035 16.37,-21.328 -14.98,-15.332 -26.62,-34.993 -31.57,-54.575 l -0.27,-1 0.64,-0.859 c 4.58,-5.859 12.49,-13.703 18.32,-18.449 l 0.86,-0.735 1.03,0.344 c 19.31,4.805 38.92,16.309 54.7,31.406 2.39,-1.843 19.08,-14.691 21.54,-16.515 -10.27,-18.856 -16.26,-40.3596 -16.26,-59.9338 0,-0.4063 0,-2.1954 0,-2.1954 l 0.98,-0.7343 c 5.8,-4.418 15.28,-9.8203 22.36,-13.0039 l 0.98,-0.3516 1.02,0.5 c 17.4,9.707 33.47,25.9922 44.74,44.7578 2.61,-1.0703 20.94,-8.5078 23.63,-9.5781 -2.62,-10.3359 -4.13,-20.9883 -4.13,-31.4883 0,-11.0117 1.44,-21.7773 4.24,-31.457 l 0.25,-1.0235 1.07,-0.3945 c 6.59,-2.8164 17.2,-5.7031 24.98,-6.957 l 1.16,-0.1602 0.75,0.8633 c 14.41,14.0078 25.66,33.9336 31.29,54.5586 3.03,-0.4922 24.11,-3.4766 27.06,-3.7891 0.42,-21.7695 6.27,-43.9179 16.47,-60.80075 l 0.45,-0.929687 1.17,-0.132813 c 7.49,-0.957031 18.62,-0.957031 25.95,0 l 1.07,0.132813 0.53,0.929687 c 10.13,16.88285 15.94,39.06255 16.49,60.92575 2.94,0.4063 22.69,3.1719 25.64,3.6641 5.82,-20.9766 17.15,-40.7227 31.56,-54.7148 l 0.79,-0.7071 0.96,0.0821 c 7.87,1.2421 18.54,4.0078 25.17,6.707 l 0.94,0.4726 0.33,0.9688 c 2.8,9.7539 4.07,20.4531 4.07,31.4375 0,10.6328 -1.5,21.4766 -4.07,31.9101 2.71,1.0235 21.86,9.3125 24.54,10.5118 11.28,-18.5938 27.31,-34.8828 44.6,-44.6485 l 0.86,-0.4297 1.02,0.3789 c 6.88,2.836 16.6,8.4336 22.57,13.1016 l 0.86,0.5039 c 0,0 0.07,2.2969 0.07,2.9336 0,19.1641 -6.07,40.5591 -16.15,59.3091 2.26,1.789 18.08,14.085 20.33,15.898 15.8,-15.004 35.49,-26.547 54.8,-31.543 l 1.03,-0.281 0.79,0.734 c 5.89,4.625 13.91,12.551 18.5,18.289 l 0.71,0.942 -0.36,0.941 c -4.8,19.27 -16.29,38.992 -31.35,54.738 1.75,2.317 14.51,19.082 16.23,21.461 19.12,-10.531 41.1,-16.558 60.88,-16.137 h 1.09 l 0.65,0.801 c 4.72,6.035 10.18,15.477 13.02,22.617 l 0.44,0.903 -0.52,0.953 c -9.44,16.992 -25.61,33.168 -44.13,44.816 1.07,2.657 8.64,21.133 9.76,23.785 21,-5.402 43.8,-5.585 62.98,0 l 0.93,0.321 0.43,0.953 c 2.81,6.762 5.67,17.242 6.87,25.016 l 0.12,1.085 -0.81,0.821 c -13.9,14.414 -33.71,25.582 -54.38,31.5 0.45,2.883 3.26,22.699 3.55,25.621 21.89,0.379 44.14,6.211 61.1,16.441 l 0.86,0.543 0.08,1.149 c 0.51,3.601 0.7,8.328 0.7,12.968 0,4.668 -0.19,9.25 -0.7,12.887"
         style="fill:#f89a0f;fill-opacity:1;fill-rule:nonzero;stroke:none"
         transform="matrix(0.13333333,0,0,-0.13333333,0,106.66667)" />
      <path
         id="path4"
         d="m 1939.25,483.176 c 2.99,-1.004 4.17,-4.317 5.09,-7.571 15.58,-52.39 15.58,-97.207 0,-150.011 -1.26,-4.539 -3.09,-7.035 -5.5,-8.02 -3.47,-1.062 -7.29,1.43 -10.48,3.789 l -102.02,69.239 c -3.92,2.617 -6.23,6.183 -6.23,9.992 0,3.754 2.25,7.316 6.23,10.043 l 102.02,69.14 c 4.6,3.317 8.2,4.36 10.89,3.399 z m -37.39,-230.957 c -37.79,-39.789 -76.49,-62.188 -129.76,-74.953 -4.52,-1.141 -7.64,-0.782 -9.58,0.82 -2.79,2.344 -2.42,7.016 -2.15,11.047 l 8.84,122.953 c 0.56,4.777 2.45,8.394 5.81,10.398 3.27,1.766 7.46,1.618 11.59,-0.363 l 110.95,-53.723 c 5.18,-2.554 7.95,-5.074 8.49,-7.832 0.54,-3.089 -1.72,-5.808 -4.19,-8.347 z m -172.58,77.574 c -39.74,0 -72.04,32.297 -72.04,72.004 0,24.242 12.09,46.746 32.4,60.144 6.68,4.477 15.71,2.559 20.13,-4.093 4.41,-6.711 2.62,-15.754 -4.1,-20.168 -12.13,-7.981 -19.32,-21.379 -19.32,-35.883 0,-23.645 19.28,-42.938 42.93,-42.938 23.7,0 42.96,19.293 42.96,42.938 0,14.504 -7.19,27.965 -19.35,35.922 -6.69,4.441 -8.51,13.461 -4.06,20.152 4.39,6.649 13.45,8.547 20.11,4.129 20.25,-13.422 32.4,-35.902 32.4,-60.203 0,-39.707 -32.33,-72.004 -72.06,-72.004 z m -31.62,-153.492 c -2.45,-1.985 -5.84,-1.387 -9.2,-0.528 -52.97,12.637 -91.91,35.055 -129.78,75.008 -2.76,2.864 -4.07,5.379 -4.07,7.641 0,0.406 0,0.656 0.07,1.101 0.52,3.497 4.8,5.547 8.37,7.274 l 110.93,53.832 c 4.33,2.019 8.51,2.125 11.78,0.195 3.2,-1.894 5.2,-5.5 5.57,-10.179 l 8.98,-123.133 c 0.35,-5.848 -0.51,-9.426 -2.65,-11.211 z m -167.27,144.277 c -4.8,-3.289 -8.37,-4.473 -11.09,-3.496 -3.02,1.043 -4.03,4.363 -4.98,7.633 -15.69,52.328 -15.69,97.211 -0.19,149.988 1.34,4.524 3.24,7.016 5.65,7.899 3.55,1.269 7.27,-1.332 10.61,-3.622 l 101.91,-69.332 c 3.85,-2.546 6.09,-6.109 6.09,-9.96 0,-3.7 -2.24,-7.266 -5.94,-9.958 z m 26.33,227.75 h 0.07 c 37.94,39.856 76.78,62.332 129.77,75.039 3.27,0.738 6.77,1.367 9.1,-0.722 2.25,-1.754 3.03,-5.36 2.62,-11.266 l -8.97,-122.867 c -0.28,-4.727 -2.24,-8.449 -5.56,-10.266 -3.23,-1.945 -7.45,-1.844 -11.66,0.242 l -110.86,53.684 c -3.63,1.797 -7.85,3.699 -8.59,7.359 -0.35,2.516 0.88,5.465 4.08,8.797 z m 205.93,75.32 c 2.54,2.067 5.9,1.411 9.23,0.719 52.97,-12.824 91.87,-35.207 129.84,-75.097 2.69,-2.844 4.14,-5.504 4.14,-7.86 0,-0.222 -0.07,-0.59 -0.07,-0.933 -0.81,-3.641 -4.87,-5.567 -8.5,-7.309 l -110.92,-53.719 c -4.38,-2.066 -8.46,-2.269 -11.66,-0.281 -3.27,1.875 -5.31,5.52 -5.67,10.289 l -8.94,122.883 c -0.37,5.867 0.43,9.488 2.55,11.308 z m -33.18,42.387 c -145.32,0 -263.6,-118.301 -263.6,-263.664 0,-145.43 118.28,-263.699 263.6,-263.699 145.37,0 263.69,118.269 263.69,263.699 0,145.363 -118.32,263.664 -263.69,263.664"
         style="fill:#f89a0f;fill-opacity:1;fill-rule:nonzero;stroke:none"
         transform="matrix(0.13333333,0,0,-0.13333333,0,106.66667)" />
    </g>
  </g>
</svg>
