<?xml version="1.0" encoding="UTF-8" standalone="no"?>
<!-- Created with Inkscape (http://www.inkscape.org/) -->

<svg
   version="1.1"
   id="svg1"
   width="359.73334"
   height="226.48"
   viewBox="0 0 359.73334 226.48"
   sodipodi:docname="RYE-text-color-EN22_20220718-002.eps"
   xmlns:inkscape="http://www.inkscape.org/namespaces/inkscape"
   xmlns:sodipodi="http://sodipodi.sourceforge.net/DTD/sodipodi-0.dtd"
   xmlns="http://www.w3.org/2000/svg"
   xmlns:svg="http://www.w3.org/2000/svg">
  <defs
     id="defs1" />
  <sodipodi:namedview
     id="namedview1"
     pagecolor="#ffffff"
     bordercolor="#000000"
     borderopacity="0.25"
     inkscape:showpageshadow="2"
     inkscape:pageopacity="0.0"
     inkscape:pagecheckerboard="0"
     inkscape:deskcolor="#d1d1d1">
    <inkscape:page
       x="0"
       y="0"
       inkscape:label="1"
       id="page1"
       width="359.73334"
       height="226.48"
       margin="0"
       bleed="0" />
  </sodipodi:namedview>
  <g
     id="g1"
     inkscape:groupmode="layer"
     inkscape:label="1">
    <g
       id="group-R5">
      <path
         id="path2"
         d="m 84.832,351.25 c 3.9766,45.73 29.16,80.191 78.863,80.191 49.707,0 69.59,-37.121 72.243,-80.191 z M 295.586,238.578 c -33.141,-18.558 -70.254,-34.457 -113.332,-34.457 -55.008,0 -93.4454,31.149 -97.422,86.16 h 235.934 c 0,119.289 -35.786,206.11 -162.371,206.11 C 52.3594,496.391 0,414.871 0,316.121 c 0,-112 65.6133,-176.949 178.277,-176.949 47.715,0 84.832,9.277 117.309,27.168 z M 437.078,326.07 319.773,147.129 h 97.422 l 76.879,127.242 76.219,-127.242 H 676.328 L 561.012,326.07 663.074,488.441 H 568.965 L 503.355,377.09 436.418,488.441 H 331.699 Z m 468.559,159.051 c -24.524,7.289 -50.367,11.27 -86.157,11.27 -106.699,0 -165.027,-78.2 -165.027,-176.95 0,-104.062 56.34,-180.269 168.34,-180.269 36.453,0 62.961,3.316 88.812,11.269 L 907.625,224 c -15.242,-6.629 -43.074,-15.898 -68.262,-15.898 -62.297,0 -92.121,48.378 -92.121,111.339 0,64.278 35.125,108.02 90.129,108.02 27.18,0 44.406,-5.301 60.309,-12.59 z m 40.551,-337.992 h 88.802 v 167 c 0,43.75 13.92,113.332 78.21,113.332 56.99,0 57.66,-56.332 57.66,-98.082 v -182.25 h 88.8 v 215.383 c 0,76.879 -35.12,133.879 -115.97,133.879 -46.4,0 -84.84,-21.211 -107.37,-54.352 h -1.33 V 644.18 H 946.188 Z M 1326.93,394.32 c 29.82,22.539 67.6,37.121 105.38,37.121 52.35,0 76.87,-18.562 76.87,-73.562 h -49.04 c -37.12,0 -80.86,-3.32 -114.66,-19.891 -33.8,-16.558 -58.32,-46.386 -58.32,-97.418 0,-64.949 58.99,-101.398 119.29,-101.398 40.43,0 84.84,21.207 105.38,58.976 h 1.33 c 0.66,-10.597 0.66,-33.136 3.97,-51.019 h 78.2 c -1.98,26.5 -3.31,50.359 -3.97,76.211 -0.66,25.18 -1.32,51.031 -1.32,85.488 v 43.742 c 0,100.739 -43.09,143.821 -147.13,143.821 -37.78,0 -84.17,-9.942 -118.64,-25.852 z m 45.06,-148.449 c 0,52.359 58.99,58.988 98.75,58.988 h 38.44 c 0,-26.519 -3.98,-51.039 -18.56,-70.257 -13.91,-18.551 -35.12,-30.481 -62.29,-30.481 -31.81,0 -56.34,12.59 -56.34,41.75 m 252.77,-98.742 h 88.81 v 167 c 0,43.75 13.92,113.332 78.2,113.332 57,0 57.66,-56.332 57.66,-98.082 v -182.25 h 88.81 v 215.383 c 0,76.879 -35.12,133.879 -115.98,133.879 -46.39,0 -84.17,-15.25 -112.01,-54.352 h -1.32 v 46.402 h -84.17 z m 513.16,68.922 c -51.03,0 -75.56,57 -75.56,103.39 0,52.348 19.22,108.02 79.54,108.02 51.69,0 74.22,-47.723 74.22,-106.031 0,-57 -22.53,-105.379 -78.2,-105.379 m 82.18,272.39 v -46.402 h -1.33 c -24.52,39.102 -59.65,54.352 -104.71,54.352 -102.07,0 -144.48,-94.77 -144.48,-176.95 0,-91.461 38.44,-172.312 139.18,-172.312 49.7,0 89.47,25.18 106.04,54.34 h 1.32 c 0,-58.981 -4.64,-132.5471 -102.73,-132.5471 -27.83,0 -72.23,15.2383 -99.41,29.8281 L 2006.7,23.1914 C 2049.11,5.30078 2089.54,0 2124.67,0 c 143.15,0 180.26,87.4805 180.26,180.262 V 488.441 Z M 2422.23,351.25 c 3.97,45.73 29.16,80.191 78.87,80.191 49.7,0 69.58,-37.121 72.23,-80.191 z m 210.75,-112.672 c -33.14,-18.558 -70.25,-34.457 -113.33,-34.457 -55,0 -93.45,31.149 -97.42,86.16 h 235.94 c 0,119.289 -35.79,206.11 -162.38,206.11 -106.04,0 -158.39,-81.52 -158.39,-180.27 0,-112 65.61,-176.949 178.28,-176.949 47.71,0 84.82,9.277 117.3,27.168 v 72.238"
         style="fill:#264391;fill-opacity:1;fill-rule:nonzero;stroke:none"
         transform="matrix(0.13333333,0,0,-0.13333333,0,226.48)" />
      <path
         id="path3"
         d="m 1154.72,1045.14 h -98.09 l 130.56,-358.55 c 0,-36.449 -21.87,-60.969 -57.66,-60.969 -21.87,0 -34.46,1.988 -45.73,5.969 l -5.96,-65.621 c 20.54,-5.957 41.75,-9.27 62.96,-9.27 92.78,0 113.33,74.223 141.82,149.778 l 127.91,338.663 h -90.13 l -82.18,-249.195 h -1.32 z m 233.41,-172.976 c 0,-98.086 65.62,-176.293 178.28,-176.293 113.33,0 178.94,78.207 178.94,176.293 0,112.664 -77.54,180.926 -178.94,180.926 -100.74,0 -178.28,-68.262 -178.28,-180.926 m 92.79,10.602 c 0,51.031 27.83,101.402 85.49,101.402 58.32,0 86.15,-49.043 86.15,-101.402 0,-56.996 -17.89,-117.969 -86.15,-117.969 -67.6,0 -85.49,61.633 -85.49,117.969 m 607.13,162.374 h -88.81 V 878.125 c 0,-43.738 -13.91,-113.328 -78.21,-113.328 -56.99,0 -57.65,56.336 -57.65,98.086 v 182.257 h -88.81 V 829.746 c 0,-76.879 35.13,-133.875 115.98,-133.875 46.4,0 84.83,21.207 112,54.348 h 1.33 v -46.395 h 84.17 z m 91.98,-238.585 c 0,-67.602 38.44,-110.684 108.03,-110.684 26.51,0 47.05,2.649 65.61,7.953 l -2.65,70.254 c -9.28,-5.965 -24.52,-9.281 -40.43,-9.281 -33.8,0 -41.75,27.176 -41.75,56.336 v 159.055 h 78.86 v 64.952 h -78.86 v 96.76 l -88.81,-28.5 v -68.26 h -65.61 v -64.952 h 65.61 z m 204.52,-102.731 h 88.81 V 870.84 c 0,43.738 13.91,113.328 78.2,113.328 56.99,0 57.66,-56.336 57.66,-98.086 V 703.824 h 88.81 v 215.395 c 0,76.875 -35.13,133.871 -115.99,133.871 -46.39,0 -84.83,-21.21 -107.36,-54.344 h -1.32 v 202.134 h -88.81 V 703.824"
         style="fill:#0fa2e2;fill-opacity:1;fill-rule:nonzero;stroke:none"
         transform="matrix(0.13333333,0,0,-0.13333333,0,226.48)" />
      <path
         id="path4"
         d="m 23.8594,1260.53 h 88.8126 v 125.26 c 0,49.04 0,139.17 72.234,139.17 15.907,0 31.809,-2.65 39.766,-7.29 v 89.47 c -9.281,2.66 -18.559,2.66 -27.176,2.66 -53.016,0 -89.469,-53.69 -93.445,-85.5 h -1.324 v 77.54 H 23.8594 Z m 208.2266,168.34 c 0,-98.09 65.613,-176.3 178.277,-176.3 113.328,0 178.942,78.21 178.942,176.3 0,112.66 -77.539,180.93 -178.942,180.93 -100.73,0 -178.277,-68.27 -178.277,-180.93 m 92.789,10.6 c 0,51.03 27.832,101.4 85.488,101.4 58.325,0 86.157,-49.05 86.157,-101.4 0,-57 -17.891,-117.97 -86.157,-117.97 -67.593,0 -85.488,61.63 -85.488,117.97 m 320.961,-76.22 c 0,-67.59 38.434,-110.68 108.023,-110.68 26.508,0 47.055,2.66 65.614,7.96 l -2.653,70.25 c -9.277,-5.97 -24.519,-9.28 -40.429,-9.28 -33.797,0 -41.75,27.18 -41.75,56.34 v 159.05 h 78.863 v 64.95 h -78.863 v 96.76 l -88.805,-28.49 v -68.27 h -65.613 v -64.95 h 65.613 z m 227.773,144.48 c 29.825,22.53 67.602,37.12 105.379,37.12 52.352,0 76.882,-18.56 76.882,-73.57 h -49.05 c -37.113,0 -80.851,-3.32 -114.652,-19.88 -33.801,-16.57 -58.32,-46.4 -58.32,-97.43 0,-64.95 58.984,-101.4 119.293,-101.4 40.429,0 84.829,21.21 105.379,58.99 h 1.32 c 0.67,-10.6 0.67,-33.14 3.98,-51.03 h 78.2 c -1.99,26.51 -3.31,50.37 -3.97,76.21 -0.67,25.19 -1.33,51.03 -1.33,85.5 v 43.74 c 0,100.73 -43.08,143.82 -147.13,143.82 -37.777,0 -84.168,-9.95 -118.629,-25.85 z m 45.067,-148.45 c 0,52.36 58.988,58.98 98.744,58.98 h 38.45 c 0,-26.51 -3.98,-51.03 -18.56,-70.25 -13.92,-18.56 -35.13,-30.49 -62.298,-30.49 -31.813,0 -56.336,12.6 -56.336,41.76 m 253.704,-98.75 h 88.8 v 125.26 c 0,49.04 0,139.17 72.24,139.17 15.91,0 31.81,-2.65 39.76,-7.29 v 89.47 c -9.27,2.66 -18.55,2.66 -27.17,2.66 -53.02,0 -89.46,-53.69 -93.44,-85.5 h -1.33 v 77.54 h -78.86 z m 320.82,341.31 h -98.08 l 130.56,-358.54 c 0,-36.46 -21.87,-60.98 -57.66,-60.98 -21.87,0 -34.47,2 -45.73,5.97 l -5.97,-65.61 c 20.55,-5.97 41.76,-9.28 62.96,-9.28 92.79,0 113.34,74.23 141.83,149.78 l 127.91,338.66 h -90.13 l -82.18,-249.19 h -1.32 l -82.19,249.19"
         style="fill:#f89a0f;fill-opacity:1;fill-rule:nonzero;stroke:none"
         transform="matrix(0.13333333,0,0,-0.13333333,0,226.48)" />
    </g>
  </g>
</svg>
