<svg id="Layer_1" data-name="Layer 1" xmlns="http://www.w3.org/2000/svg" xmlns:xlink="http://www.w3.org/1999/xlink" viewBox="0 0 738 504"><defs><clipPath id="clip-path" transform="translate(18 0)"><circle cx="360" cy="252" r="126" fill="none"/></clipPath><clipPath id="clip-path-2" transform="translate(18 0)"><path d="M399.08,235l4.79-11,9.9,4.3-4.78,11Zm8.17-5.23-.82,1.88,4.95,2.16.82-1.89Z" fill="none"/></clipPath></defs><rect x="18" width="720" height="504" fill="#009b3a"/><path d="M61.2,252,360,442.8,658.8,252,360,61.2Z" transform="translate(18 0)" fill="#fedf00"/><circle cx="378" cy="252" r="126" fill="#002776"/><g clip-path="url(#clip-path)"><path d="M-18,504c0-169,137-306,306-306S594,335,594,504H576c0-159.06-128.94-288-288-288S0,344.94,0,504Z" transform="translate(18 0)" fill="#fff"/></g><path id="O" d="M252.54,215.17c3-.36,5-3.33,4.62-6.61s-3.13-5.66-6.09-5.3-5,3.32-4.62,6.61,3.13,5.66,6.09,5.3m-.28-2.21a3.51,3.51,0,0,0,2.69-4.13c-.25-2.07-1.87-3.57-3.6-3.36a3.5,3.5,0,0,0-2.69,4.13c.25,2.07,1.87,3.57,3.6,3.36" transform="translate(18 0)" fill="#009b3a" fill-rule="evenodd"/><g id="R"><path id="P" d="M262.31,214.09l2.23-.16-.31-4.45,4.78-.33a3.77,3.77,0,0,0-.52-7.53l-6.84.48Zm1.76-6.83,4.62-.32a1.54,1.54,0,0,0-.22-3.08l-4.61.32Z" transform="translate(18 0)" fill="#009b3a" fill-rule="evenodd"/><path d="M272.49,213.37c-.12-1.71-.38-5.47-2.95-5.29l-3.25.23c3.76-.26,4,3.5,4.15,5.21" transform="translate(18 0)" fill="#009b3a"/></g><path id="D" d="M277.52,213.14l5.66-.1a5.14,5.14,0,0,0,5.05-5.23l0-1.72A5.14,5.14,0,0,0,283,201l-5.66.1Zm2.19-2.27,3.26-.06a3.25,3.25,0,0,0,3.2-3.31l0-1a3.25,3.25,0,0,0-3.31-3.2l-3.26.06Z" transform="translate(18 0)" fill="#009b3a" fill-rule="evenodd"/><path id="E" d="M292.76,213l10.79.38.08-2.23-8.74-.31.11-3.08,6.85.24.08-2.06-6.86-.24.09-2.39,8.22.28.08-2.22L293.18,201Z" transform="translate(18 0)" fill="#009b3a"/><path id="M" d="M308,213.64l2,.18.72-8.2,1.67,8.41,1.88.16,3.11-8-.72,8.2,2.05.18,1.05-12-3-.26-3.11,8L312,201.94l-3-.26Z" transform="translate(18 0)" fill="#009b3a"/><path id="e-2" data-name="e" d="M332.85,216.44l8.87,1.53.34-2-6.84-1.18.47-2.7,5.57,1,.35-2L336,210l.32-1.86,6.64,1.14.34-2-8.66-1.48Z" transform="translate(18 0)" fill="#009b3a"/><path id="P-2" data-name="P" d="M355.63,220.92l2.16.55,1.12-4.31,4.64,1.2a3.77,3.77,0,1,0,1.89-7.3l-6.64-1.72Zm3.83-5.92,4.49,1.16a1.54,1.54,0,0,0,.77-3L360.24,212Z" transform="translate(18 0)" fill="#009b3a" fill-rule="evenodd"/><g id="R-2" data-name="R"><path id="P-3" data-name="P" d="M370.36,224.84l2.12.67,1.34-4.25,4.58,1.45a3.77,3.77,0,0,0,2.27-7.2l-6.54-2.06Zm4.13-5.7,4.42,1.39a1.54,1.54,0,1,0,.92-2.94l-4.41-1.39Z" transform="translate(18 0)" fill="#009b3a" fill-rule="evenodd"/><path d="M380.08,227.91c.52-1.63,1.65-5.23-.8-6l-3.11-1c3.6,1.13,2.47,4.73,1.95,6.36" transform="translate(18 0)" fill="#009b3a"/></g><path id="O-2" data-name="O" d="M389.91,231.43c2.79,1,6-.63,7.16-3.73s-.16-6.47-3-7.51-6,.62-7.16,3.73a5.73,5.73,0,0,0,3,7.51m.78-2.09a3.51,3.51,0,0,0,4.29-2.42c.73-1.95,0-4-1.65-4.64s-3.56.47-4.29,2.42,0,4,1.65,4.64" transform="translate(18 0)" fill="#009b3a" fill-rule="evenodd"/><g id="G"><g clip-path="url(#clip-path-2)"><path id="O-3" data-name="O" d="M404,237.14c2.73,1.18,6-.31,7.34-3.35s.18-6.47-2.56-7.66-6,.31-7.34,3.35-.18,6.47,2.56,7.66m.88-2a3.51,3.51,0,0,0,4.42-2.19c.83-1.91.2-4-1.41-4.73s-3.58.29-4.41,2.2a3.51,3.51,0,0,0,1.4,4.72" transform="translate(18 0)" fill="#009b3a" fill-rule="evenodd"/></g><rect x="408.1" y="231.4" width="1.71" height="4.54" transform="translate(49.6 515.53) rotate(-66.5)" fill="#009b3a"/><rect x="406.4" y="235.34" width="6" height="1.71" transform="translate(47.55 517.46) rotate(-66.5)" fill="#009b3a"/></g><g id="R-3" data-name="R"><path id="P-4" data-name="P" d="M413,241.16l2,1,2-4,4.3,2.14a3.77,3.77,0,1,0,3.37-6.75l-6.14-3.06Zm5-5,4.14,2.06a1.54,1.54,0,1,0,1.38-2.76l-4.14-2.07Z" transform="translate(18 0)" fill="#009b3a" fill-rule="evenodd"/><path d="M422.14,245.72c.76-1.54,2.45-4.91.15-6.06l-2.92-1.45c3.38,1.68,1.69,5,.93,6.59" transform="translate(18 0)" fill="#009b3a"/></g><path id="E-3" data-name="E" d="M426.6,248.07l9.4,5.32,1.09-1.94-7.61-4.31,1.52-2.68,6,3.37,1-1.79-6-3.38,1.18-2.08,7.16,4,1.1-1.94-9-5.07Z" transform="translate(18 0)" fill="#009b3a"/><path id="S" d="M444.1,253.94c-.64,1,0,2.14,1.46,3.06s2.43.89,2.84.24c1.32-2.06-6.27-5.06-3.93-8.66,2-3.08,5.46-.68,6.77.15s3.39,3,1.76,5.44l-2.2-1.4c.69-1.09-.07-2.13-1.23-2.87s-2-1-2.7,0c-1.12,1.68,6.32,4.84,4,8.42-1.68,2.64-4.6,1.49-6.56.24-1.66-1.06-4.14-3.55-2.52-6.08Z" transform="translate(18 0)" fill="#009b3a"/><path id="S-2" data-name="S" d="M457,262.45c-.7,1-.11,2.14,1.29,3.14s2.38,1,2.83.38c1.42-2-6-5.38-3.48-8.85,2.18-3,5.5-.39,6.75.5s3.23,3.15,1.48,5.53l-2.13-1.52c.75-1,0-2.12-1.07-2.92s-2-1.15-2.7-.13c-1.2,1.61,6.06,5.16,3.6,8.61-1.82,2.55-4.68,1.25-6.57-.1-1.6-1.14-4-3.77-2.2-6.2Z" transform="translate(18 0)" fill="#009b3a"/><path id="O-4" data-name="O" d="M469.15,276.26c2.34,1.86,5.9,1.26,8-1.33s1.85-6.2-.49-8.06-5.9-1.26-8,1.33-1.84,6.2.49,8.06m1.39-1.74c1.37,1.09,3.53.65,4.83-1s1.24-3.84-.14-4.93-3.53-.65-4.83,1-1.23,3.84.14,4.93" transform="translate(18 0)" fill="#009b3a" fill-rule="evenodd"/><g id="αCMi"><g id="star1"><g id="star"><g id="c"><path id="t" d="M257.14,224l-1.67,5.14,2.57.83" transform="translate(18 0)" fill="#fff"/><path id="t-2" data-name="t" d="M257.14,224l1.67,5.14-2.57.83" transform="translate(18 0)" fill="#fff"/></g><g id="c-2" data-name="c"><path id="t-3" data-name="t" d="M262.28,227.7h-5.4v2.7" transform="translate(18 0)" fill="#fff"/><path id="t-4" data-name="t" d="M262.28,227.7l-4.37,3.18-1.59-2.19" transform="translate(18 0)" fill="#fff"/></g><g id="c-3" data-name="c"><path id="t-5" data-name="t" d="M252,227.7l4.37,3.18,1.58-2.19" transform="translate(18 0)" fill="#fff"/><path id="t-6" data-name="t" d="M252,227.7h5.4v2.7" transform="translate(18 0)" fill="#fff"/></g><g id="c-4" data-name="c"><path id="t-7" data-name="t" d="M260.32,233.74l-1.67-5.14-2.57.84" transform="translate(18 0)" fill="#fff"/><path id="t-8" data-name="t" d="M260.32,233.74,256,230.57l1.59-2.19" transform="translate(18 0)" fill="#fff"/></g><g id="c-5" data-name="c"><path id="t-9" data-name="t" d="M254,233.74l4.37-3.17-1.59-2.19" transform="translate(18 0)" fill="#fff"/><path id="t-10" data-name="t" d="M254,233.74l1.67-5.14,2.57.84" transform="translate(18 0)" fill="#fff"/></g></g></g></g><g id="αCMa"><g id="star1-2" data-name="star1"><g id="star-2" data-name="star"><g id="c-6" data-name="c"><path id="t-11" data-name="t" d="M268.29,276.94l-1.67,5.14,2.56.83" transform="translate(18 0)" fill="#fff"/><path id="t-12" data-name="t" d="M268.29,276.94l1.66,5.14-2.56.83" transform="translate(18 0)" fill="#fff"/></g><g id="c-7" data-name="c"><path id="t-13" data-name="t" d="M273.42,280.67H268v2.7" transform="translate(18 0)" fill="#fff"/><path id="t-14" data-name="t" d="M273.42,280.67l-4.37,3.18-1.58-2.19" transform="translate(18 0)" fill="#fff"/></g><g id="c-8" data-name="c"><path id="t-15" data-name="t" d="M263.15,280.67l4.37,3.18,1.59-2.19" transform="translate(18 0)" fill="#fff"/><path id="t-16" data-name="t" d="M263.15,280.67h5.4v2.7" transform="translate(18 0)" fill="#fff"/></g><g id="c-9" data-name="c"><path id="t-17" data-name="t" d="M271.46,286.71l-1.67-5.13-2.57.83" transform="translate(18 0)" fill="#fff"/><path id="t-18" data-name="t" d="M271.46,286.71l-4.37-3.17,1.59-2.19" transform="translate(18 0)" fill="#fff"/></g><g id="c-10" data-name="c"><path id="t-19" data-name="t" d="M265.11,286.71l4.37-3.17-1.59-2.19" transform="translate(18 0)" fill="#fff"/><path id="t-20" data-name="t" d="M265.11,286.71l1.67-5.13,2.57.83" transform="translate(18 0)" fill="#fff"/></g></g></g></g><g id="βCMa"><g id="star2"><g id="star-3" data-name="star"><g id="c-11" data-name="c"><path id="t-21" data-name="t" d="M252.86,289.16l-1.39,4.28,2.14.69" transform="translate(18 0)" fill="#fff"/><path id="t-22" data-name="t" d="M252.86,289.16l1.39,4.28-2.14.69" transform="translate(18 0)" fill="#fff"/></g><g id="c-12" data-name="c"><path id="t-23" data-name="t" d="M257.14,292.27h-4.5v2.25" transform="translate(18 0)" fill="#fff"/><path id="t-24" data-name="t" d="M257.14,292.27l-3.64,2.64-1.33-1.82" transform="translate(18 0)" fill="#fff"/></g><g id="c-13" data-name="c"><path id="t-25" data-name="t" d="M248.58,292.27l3.64,2.64,1.32-1.82" transform="translate(18 0)" fill="#fff"/><path id="t-26" data-name="t" d="M248.58,292.27h4.5v2.25" transform="translate(18 0)" fill="#fff"/></g><g id="c-14" data-name="c"><path id="t-27" data-name="t" d="M255.5,297.3,254.11,293l-2.14.69" transform="translate(18 0)" fill="#fff"/><path id="t-28" data-name="t" d="M255.5,297.3l-3.64-2.65,1.32-1.82" transform="translate(18 0)" fill="#fff"/></g><g id="c-15" data-name="c"><path id="t-29" data-name="t" d="M250.21,297.3l3.64-2.65-1.32-1.82" transform="translate(18 0)" fill="#fff"/><path id="t-30" data-name="t" d="M250.21,297.3,251.6,293l2.14.69" transform="translate(18 0)" fill="#fff"/></g></g></g></g><g id="γCMa"><g id="star4"><g id="star-4" data-name="star"><g id="c-16" data-name="c"><path id="t-31" data-name="t" d="M280.63,272.06l-.8,2.44,1.23.4" transform="translate(18 0)" fill="#fff"/><path id="t-32" data-name="t" d="M280.63,272.06l.79,2.44-1.22.4" transform="translate(18 0)" fill="#fff"/></g><g id="c-17" data-name="c"><path id="t-33" data-name="t" d="M283.07,273.83H280.5v1.29" transform="translate(18 0)" fill="#fff"/><path id="t-34" data-name="t" d="M283.07,273.83,281,275.35l-.75-1" transform="translate(18 0)" fill="#fff"/></g><g id="c-18" data-name="c"><path id="t-35" data-name="t" d="M278.18,273.83l2.08,1.52.76-1" transform="translate(18 0)" fill="#fff"/><path id="t-36" data-name="t" d="M278.18,273.83h2.57v1.29" transform="translate(18 0)" fill="#fff"/></g><g id="c-19" data-name="c"><path id="t-37" data-name="t" d="M282.14,276.71l-.79-2.45-1.23.4" transform="translate(18 0)" fill="#fff"/><path id="t-38" data-name="t" d="M282.14,276.71l-2.08-1.51.76-1" transform="translate(18 0)" fill="#fff"/></g><g id="c-20" data-name="c"><path id="t-39" data-name="t" d="M279.12,276.71l2.08-1.51-.76-1" transform="translate(18 0)" fill="#fff"/><path id="t-40" data-name="t" d="M279.12,276.71l.79-2.45,1.22.4" transform="translate(18 0)" fill="#fff"/></g></g></g></g><g id="δCMa"><g id="star2-2" data-name="star2"><g id="star-5" data-name="star"><g id="c-21" data-name="c"><path id="t-41" data-name="t" d="M294.51,290.36l-1.39,4.28,2.14.69" transform="translate(18 0)" fill="#fff"/><path id="t-42" data-name="t" d="M294.51,290.36l1.39,4.28-2.14.69" transform="translate(18 0)" fill="#fff"/></g><g id="c-22" data-name="c"><path id="t-43" data-name="t" d="M298.79,293.47h-4.5v2.25" transform="translate(18 0)" fill="#fff"/><path id="t-44" data-name="t" d="M298.79,293.47l-3.64,2.64-1.32-1.82" transform="translate(18 0)" fill="#fff"/></g><g id="c-23" data-name="c"><path id="t-45" data-name="t" d="M290.23,293.47l3.65,2.64,1.32-1.82" transform="translate(18 0)" fill="#fff"/><path id="t-46" data-name="t" d="M290.23,293.47h4.5v2.25" transform="translate(18 0)" fill="#fff"/></g><g id="c-24" data-name="c"><path id="t-47" data-name="t" d="M297.16,298.5l-1.39-4.28-2.14.69" transform="translate(18 0)" fill="#fff"/><path id="t-48" data-name="t" d="M297.16,298.5l-3.64-2.65,1.32-1.82" transform="translate(18 0)" fill="#fff"/></g><g id="c-25" data-name="c"><path id="t-49" data-name="t" d="M291.87,298.5l3.64-2.65L294.19,294" transform="translate(18 0)" fill="#fff"/><path id="t-50" data-name="t" d="M291.87,298.5l1.39-4.28,2.14.69" transform="translate(18 0)" fill="#fff"/></g></g></g></g><g id="εCMa"><g id="star3"><g id="star-6" data-name="star"><g id="c-26" data-name="c"><path id="t-51" data-name="t" d="M290.74,303.77l-1.11,3.43,1.71.55" transform="translate(18 0)" fill="#fff"/><path id="t-52" data-name="t" d="M290.74,303.77l1.12,3.43-1.72.55" transform="translate(18 0)" fill="#fff"/></g><g id="c-27" data-name="c"><path id="t-53" data-name="t" d="M294.17,306.26h-3.6v1.8" transform="translate(18 0)" fill="#fff"/><path id="t-54" data-name="t" d="M294.17,306.26l-2.92,2.11-1.05-1.45" transform="translate(18 0)" fill="#fff"/></g><g id="c-28" data-name="c"><path id="t-55" data-name="t" d="M287.32,306.26l2.91,2.11,1.06-1.45" transform="translate(18 0)" fill="#fff"/><path id="t-56" data-name="t" d="M287.32,306.26h3.6v1.8" transform="translate(18 0)" fill="#fff"/></g><g id="c-29" data-name="c"><path id="t-57" data-name="t" d="M292.86,310.28l-1.11-3.42-1.72.56" transform="translate(18 0)" fill="#fff"/><path id="t-58" data-name="t" d="M292.86,310.28,290,308.17l1.05-1.46" transform="translate(18 0)" fill="#fff"/></g><g id="c-30" data-name="c"><path id="t-59" data-name="t" d="M288.63,310.28l2.91-2.11-1.06-1.46" transform="translate(18 0)" fill="#fff"/><path id="t-60" data-name="t" d="M288.63,310.28l1.11-3.42,1.71.56" transform="translate(18 0)" fill="#fff"/></g></g></g></g><g id="αVir"><g id="star1-3" data-name="star1"><g id="star-7" data-name="star"><g id="c-31" data-name="c"><path id="t-61" data-name="t" d="M399.09,207.51l-1.67,5.14,2.56.83" transform="translate(18 0)" fill="#fff"/><path id="t-62" data-name="t" d="M399.09,207.51l1.66,5.14-2.56.83" transform="translate(18 0)" fill="#fff"/></g><g id="c-32" data-name="c"><path id="t-63" data-name="t" d="M404.22,211.25h-5.4V214" transform="translate(18 0)" fill="#fff"/><path id="t-64" data-name="t" d="M404.22,211.25l-4.37,3.17-1.58-2.18" transform="translate(18 0)" fill="#fff"/></g><g id="c-33" data-name="c"><path id="t-65" data-name="t" d="M394,211.25l4.37,3.17,1.59-2.18" transform="translate(18 0)" fill="#fff"/><path id="t-66" data-name="t" d="M394,211.25h5.4V214" transform="translate(18 0)" fill="#fff"/></g><g id="c-34" data-name="c"><path id="t-67" data-name="t" d="M402.26,217.28l-1.67-5.13L398,213" transform="translate(18 0)" fill="#fff"/><path id="t-68" data-name="t" d="M402.26,217.28l-4.37-3.17,1.59-2.19" transform="translate(18 0)" fill="#fff"/></g><g id="c-35" data-name="c"><path id="t-69" data-name="t" d="M395.91,217.28l4.37-3.17-1.59-2.19" transform="translate(18 0)" fill="#fff"/><path id="t-70" data-name="t" d="M395.91,217.28l1.67-5.13,2.57.83" transform="translate(18 0)" fill="#fff"/></g></g></g></g><g id="αSco"><g id="star1-4" data-name="star1"><g id="star-8" data-name="star"><g id="c-36" data-name="c"><path id="t-71" data-name="t" d="M448.29,290.83,446.62,296l2.56.84" transform="translate(18 0)" fill="#fff"/><path id="t-72" data-name="t" d="M448.29,290.83,450,296l-2.56.84" transform="translate(18 0)" fill="#fff"/></g><g id="c-37" data-name="c"><path id="t-73" data-name="t" d="M453.42,294.56H448v2.7" transform="translate(18 0)" fill="#fff"/><path id="t-74" data-name="t" d="M453.42,294.56l-4.37,3.17-1.58-2.18" transform="translate(18 0)" fill="#fff"/></g><g id="c-38" data-name="c"><path id="t-75" data-name="t" d="M443.15,294.56l4.37,3.17,1.59-2.18" transform="translate(18 0)" fill="#fff"/><path id="t-76" data-name="t" d="M443.15,294.56h5.4v2.7" transform="translate(18 0)" fill="#fff"/></g><g id="c-39" data-name="c"><path id="t-77" data-name="t" d="M451.46,300.6l-1.67-5.14-2.57.84" transform="translate(18 0)" fill="#fff"/><path id="t-78" data-name="t" d="M451.46,300.6l-4.37-3.18,1.59-2.18" transform="translate(18 0)" fill="#fff"/></g><g id="c-40" data-name="c"><path id="t-79" data-name="t" d="M445.11,300.6l4.37-3.18-1.59-2.18" transform="translate(18 0)" fill="#fff"/><path id="t-80" data-name="t" d="M445.11,300.6l1.67-5.14,2.57.84" transform="translate(18 0)" fill="#fff"/></g></g></g></g><g id="βSco"><g id="star3-2" data-name="star3"><g id="star-9" data-name="star"><g id="c-41" data-name="c"><path id="t-81" data-name="t" d="M465.77,293.83l-1.11,3.42,1.71.56" transform="translate(18 0)" fill="#fff"/><path id="t-82" data-name="t" d="M465.77,293.83l1.11,3.42-1.71.56" transform="translate(18 0)" fill="#fff"/></g><g id="c-42" data-name="c"><path id="t-83" data-name="t" d="M469.2,296.32h-3.6v1.8" transform="translate(18 0)" fill="#fff"/><path id="t-84" data-name="t" d="M469.2,296.32l-2.92,2.11L465.22,297" transform="translate(18 0)" fill="#fff"/></g><g id="c-43" data-name="c"><path id="t-85" data-name="t" d="M462.35,296.32l2.91,2.11,1.06-1.45" transform="translate(18 0)" fill="#fff"/><path id="t-86" data-name="t" d="M462.35,296.32H466v1.8" transform="translate(18 0)" fill="#fff"/></g><g id="c-44" data-name="c"><path id="t-87" data-name="t" d="M467.89,300.34l-1.12-3.42-1.71.55" transform="translate(18 0)" fill="#fff"/><path id="t-88" data-name="t" d="M467.89,300.34,465,298.23l1.06-1.46" transform="translate(18 0)" fill="#fff"/></g><g id="c-45" data-name="c"><path id="t-89" data-name="t" d="M463.66,300.34l2.91-2.11-1.06-1.46" transform="translate(18 0)" fill="#fff"/><path id="t-90" data-name="t" d="M463.66,300.34l1.11-3.42,1.71.55" transform="translate(18 0)" fill="#fff"/></g></g></g></g><g id="εSco"><g id="star2-3" data-name="star2"><g id="star-10" data-name="star"><g id="c-46" data-name="c"><path id="t-91" data-name="t" d="M453.43,302.87,452,307.15l2.14.7" transform="translate(18 0)" fill="#fff"/><path id="t-92" data-name="t" d="M453.43,302.87l1.39,4.28-2.14.7" transform="translate(18 0)" fill="#fff"/></g><g id="c-47" data-name="c"><path id="t-93" data-name="t" d="M457.71,306h-4.5v2.25" transform="translate(18 0)" fill="#fff"/><path id="t-94" data-name="t" d="M457.71,306l-3.64,2.65-1.32-1.82" transform="translate(18 0)" fill="#fff"/></g><g id="c-48" data-name="c"><path id="t-95" data-name="t" d="M449.15,306l3.64,2.65,1.32-1.82" transform="translate(18 0)" fill="#fff"/><path id="t-96" data-name="t" d="M449.15,306h4.5v2.25" transform="translate(18 0)" fill="#fff"/></g><g id="c-49" data-name="c"><path id="t-97" data-name="t" d="M456.07,311l-1.39-4.28-2.14.7" transform="translate(18 0)" fill="#fff"/><path id="t-98" data-name="t" d="M456.07,311l-3.64-2.64,1.33-1.82" transform="translate(18 0)" fill="#fff"/></g><g id="c-50" data-name="c"><path id="t-99" data-name="t" d="M450.78,311l3.64-2.64-1.32-1.82" transform="translate(18 0)" fill="#fff"/><path id="t-100" data-name="t" d="M450.78,311l1.39-4.28,2.14.7" transform="translate(18 0)" fill="#fff"/></g></g></g></g><g id="θSco"><g id="star2-4" data-name="star2"><g id="star-11" data-name="star"><g id="c-51" data-name="c"><path id="t-101" data-name="t" d="M423.09,329.27l-1.39,4.28,2.14.7" transform="translate(18 0)" fill="#fff"/><path id="t-102" data-name="t" d="M423.09,329.27l1.39,4.28-2.14.7" transform="translate(18 0)" fill="#fff"/></g><g id="c-52" data-name="c"><path id="t-103" data-name="t" d="M427.37,332.38h-4.5v2.25" transform="translate(18 0)" fill="#fff"/><path id="t-104" data-name="t" d="M427.37,332.38,423.72,335l-1.32-1.82" transform="translate(18 0)" fill="#fff"/></g><g id="c-53" data-name="c"><path id="t-105" data-name="t" d="M418.81,332.38l3.64,2.65,1.32-1.82" transform="translate(18 0)" fill="#fff"/><path id="t-106" data-name="t" d="M418.81,332.38h4.5v2.25" transform="translate(18 0)" fill="#fff"/></g><g id="c-54" data-name="c"><path id="t-107" data-name="t" d="M425.73,337.41l-1.39-4.28-2.14.7" transform="translate(18 0)" fill="#fff"/><path id="t-108" data-name="t" d="M425.73,337.41l-3.64-2.64,1.32-1.82" transform="translate(18 0)" fill="#fff"/></g><g id="c-55" data-name="c"><path id="t-109" data-name="t" d="M420.44,337.41l3.64-2.64L422.76,333" transform="translate(18 0)" fill="#fff"/><path id="t-110" data-name="t" d="M420.44,337.41l1.39-4.28,2.14.7" transform="translate(18 0)" fill="#fff"/></g></g></g></g><g id="ιSco"><g id="star3-3" data-name="star3"><g id="star-12" data-name="star"><g id="c-56" data-name="c"><path id="t-111" data-name="t" d="M422.91,342.86l-1.11,3.42,1.71.56" transform="translate(18 0)" fill="#fff"/><path id="t-112" data-name="t" d="M422.91,342.86l1.12,3.42-1.72.56" transform="translate(18 0)" fill="#fff"/></g><g id="c-57" data-name="c"><path id="t-113" data-name="t" d="M426.34,345.34h-3.6v1.8" transform="translate(18 0)" fill="#fff"/><path id="t-114" data-name="t" d="M426.34,345.34l-2.91,2.12L422.37,346" transform="translate(18 0)" fill="#fff"/></g><g id="c-58" data-name="c"><path id="t-115" data-name="t" d="M419.49,345.34l2.91,2.12,1.06-1.46" transform="translate(18 0)" fill="#fff"/><path id="t-116" data-name="t" d="M419.49,345.34h3.6v1.8" transform="translate(18 0)" fill="#fff"/></g><g id="c-59" data-name="c"><path id="t-117" data-name="t" d="M425,349.37,423.92,346l-1.71.55" transform="translate(18 0)" fill="#fff"/><path id="t-118" data-name="t" d="M425,349.37l-2.91-2.12,1.06-1.45" transform="translate(18 0)" fill="#fff"/></g><g id="c-60" data-name="c"><path id="t-119" data-name="t" d="M420.8,349.37l2.91-2.12-1.06-1.45" transform="translate(18 0)" fill="#fff"/><path id="t-120" data-name="t" d="M420.8,349.37l1.11-3.42,1.71.55" transform="translate(18 0)" fill="#fff"/></g></g></g></g><g id="κSco"><g id="star3-4" data-name="star3"><g id="star-13" data-name="star"><g id="c-61" data-name="c"><path id="t-121" data-name="t" d="M435.6,320.23l-1.11,3.42,1.71.56" transform="translate(18 0)" fill="#fff"/><path id="t-122" data-name="t" d="M435.6,320.23l1.11,3.42-1.71.56" transform="translate(18 0)" fill="#fff"/></g><g id="c-62" data-name="c"><path id="t-123" data-name="t" d="M439,322.72h-3.6v1.8" transform="translate(18 0)" fill="#fff"/><path id="t-124" data-name="t" d="M439,322.72l-2.91,2.11-1.06-1.45" transform="translate(18 0)" fill="#fff"/></g><g id="c-63" data-name="c"><path id="t-125" data-name="t" d="M432.18,322.72l2.91,2.11,1.06-1.45" transform="translate(18 0)" fill="#fff"/><path id="t-126" data-name="t" d="M432.18,322.72h3.6v1.8" transform="translate(18 0)" fill="#fff"/></g><g id="c-64" data-name="c"><path id="t-127" data-name="t" d="M437.72,326.74l-1.12-3.42-1.71.55" transform="translate(18 0)" fill="#fff"/><path id="t-128" data-name="t" d="M437.72,326.74l-2.92-2.11,1.06-1.46" transform="translate(18 0)" fill="#fff"/></g><g id="c-65" data-name="c"><path id="t-129" data-name="t" d="M433.48,326.74l2.92-2.11-1.06-1.46" transform="translate(18 0)" fill="#fff"/><path id="t-130" data-name="t" d="M433.48,326.74l1.12-3.42,1.71.55" transform="translate(18 0)" fill="#fff"/></g></g></g></g><g id="λSco"><g id="star2-5" data-name="star2"><g id="star-14" data-name="star"><g id="c-66" data-name="c"><path id="t-131" data-name="t" d="M445.71,313l-1.39,4.28,2.14.69" transform="translate(18 0)" fill="#fff"/><path id="t-132" data-name="t" d="M445.71,313l1.39,4.28L445,318" transform="translate(18 0)" fill="#fff"/></g><g id="c-67" data-name="c"><path id="t-133" data-name="t" d="M450,316.1h-4.5v2.25" transform="translate(18 0)" fill="#fff"/><path id="t-134" data-name="t" d="M450,316.1l-3.64,2.64L445,316.92" transform="translate(18 0)" fill="#fff"/></g><g id="c-68" data-name="c"><path id="t-135" data-name="t" d="M441.43,316.1l3.65,2.64,1.32-1.82" transform="translate(18 0)" fill="#fff"/><path id="t-136" data-name="t" d="M441.43,316.1h4.5v2.25" transform="translate(18 0)" fill="#fff"/></g><g id="c-69" data-name="c"><path id="t-137" data-name="t" d="M448.36,321.13,447,316.85l-2.14.69" transform="translate(18 0)" fill="#fff"/><path id="t-138" data-name="t" d="M448.36,321.13l-3.64-2.65,1.32-1.82" transform="translate(18 0)" fill="#fff"/></g><g id="c-70" data-name="c"><path id="t-139" data-name="t" d="M443.07,321.13l3.64-2.65-1.32-1.82" transform="translate(18 0)" fill="#fff"/><path id="t-140" data-name="t" d="M443.07,321.13l1.39-4.28,2.14.69" transform="translate(18 0)" fill="#fff"/></g></g></g></g><g id="μSco"><g id="star3-5" data-name="star3"><g id="star-15" data-name="star"><g id="c-71" data-name="c"><path id="t-141" data-name="t" d="M422.57,317.83l-1.11,3.42,1.71.56" transform="translate(18 0)" fill="#fff"/><path id="t-142" data-name="t" d="M422.57,317.83l1.11,3.42-1.71.56" transform="translate(18 0)" fill="#fff"/></g><g id="c-72" data-name="c"><path id="t-143" data-name="t" d="M426,320.32h-3.6v1.8" transform="translate(18 0)" fill="#fff"/><path id="t-144" data-name="t" d="M426,320.32l-2.92,2.11L422,321" transform="translate(18 0)" fill="#fff"/></g><g id="c-73" data-name="c"><path id="t-145" data-name="t" d="M419.15,320.32l2.91,2.11,1.06-1.45" transform="translate(18 0)" fill="#fff"/><path id="t-146" data-name="t" d="M419.15,320.32h3.6v1.8" transform="translate(18 0)" fill="#fff"/></g><g id="c-74" data-name="c"><path id="t-147" data-name="t" d="M424.69,324.34l-1.12-3.42-1.71.55" transform="translate(18 0)" fill="#fff"/><path id="t-148" data-name="t" d="M424.69,324.34l-2.92-2.11,1.06-1.46" transform="translate(18 0)" fill="#fff"/></g><g id="c-75" data-name="c"><path id="t-149" data-name="t" d="M420.46,324.34l2.91-2.11-1.06-1.46" transform="translate(18 0)" fill="#fff"/><path id="t-150" data-name="t" d="M420.46,324.34l1.11-3.42,1.71.55" transform="translate(18 0)" fill="#fff"/></g></g></g></g><g id="αHya"><g id="star2-6" data-name="star2"><g id="star-16" data-name="star"><g id="c-76" data-name="c"><path id="t-151" data-name="t" d="M312,252.64l-1.39,4.28,2.14.7" transform="translate(18 0)" fill="#fff"/><path id="t-152" data-name="t" d="M312,252.64l1.39,4.28-2.14.7" transform="translate(18 0)" fill="#fff"/></g><g id="c-77" data-name="c"><path id="t-153" data-name="t" d="M316.28,255.75h-4.5V258" transform="translate(18 0)" fill="#fff"/><path id="t-154" data-name="t" d="M316.28,255.75l-3.64,2.65-1.32-1.82" transform="translate(18 0)" fill="#fff"/></g><g id="c-78" data-name="c"><path id="t-155" data-name="t" d="M307.72,255.75l3.64,2.65,1.32-1.82" transform="translate(18 0)" fill="#fff"/><path id="t-156" data-name="t" d="M307.72,255.75h4.5V258" transform="translate(18 0)" fill="#fff"/></g><g id="c-79" data-name="c"><path id="t-157" data-name="t" d="M314.65,260.78l-1.4-4.28-2.14.7" transform="translate(18 0)" fill="#fff"/><path id="t-158" data-name="t" d="M314.65,260.78,311,258.14l1.33-1.82" transform="translate(18 0)" fill="#fff"/></g><g id="c-80" data-name="c"><path id="t-159" data-name="t" d="M309.35,260.78l3.65-2.64-1.33-1.82" transform="translate(18 0)" fill="#fff"/><path id="t-160" data-name="t" d="M309.35,260.78l1.4-4.28,2.14.7" transform="translate(18 0)" fill="#fff"/></g></g></g></g><g id="γHya"><g id="star3-6" data-name="star3"><g id="star-17" data-name="star"><g id="c-81" data-name="c"><path id="t-161" data-name="t" d="M394.29,242.06l-1.12,3.42,1.72.56" transform="translate(18 0)" fill="#fff"/><path id="t-162" data-name="t" d="M394.29,242.06l1.11,3.42-1.71.56" transform="translate(18 0)" fill="#fff"/></g><g id="c-82" data-name="c"><path id="t-163" data-name="t" d="M397.71,244.54h-3.6v1.8" transform="translate(18 0)" fill="#fff"/><path id="t-164" data-name="t" d="M397.71,244.54l-2.91,2.12-1.06-1.46" transform="translate(18 0)" fill="#fff"/></g><g id="c-83" data-name="c"><path id="t-165" data-name="t" d="M390.86,244.54l2.91,2.12,1.06-1.46" transform="translate(18 0)" fill="#fff"/><path id="t-166" data-name="t" d="M390.86,244.54h3.6v1.8" transform="translate(18 0)" fill="#fff"/></g><g id="c-84" data-name="c"><path id="t-167" data-name="t" d="M396.4,248.57l-1.11-3.42-1.71.55" transform="translate(18 0)" fill="#fff"/><path id="t-168" data-name="t" d="M396.4,248.57l-2.91-2.12,1.06-1.45" transform="translate(18 0)" fill="#fff"/></g><g id="c-85" data-name="c"><path id="t-169" data-name="t" d="M392.17,248.57l2.91-2.12L394,245" transform="translate(18 0)" fill="#fff"/><path id="t-170" data-name="t" d="M392.17,248.57l1.11-3.42,1.71.55" transform="translate(18 0)" fill="#fff"/></g></g></g></g><g id="αCru"><g id="star1-5" data-name="star1"><g id="star-18" data-name="star"><g id="c-86" data-name="c"><path id="t-171" data-name="t" d="M360,303.17l-1.67,5.14,2.57.83" transform="translate(18 0)" fill="#fff"/><path id="t-172" data-name="t" d="M360,303.17l1.67,5.14-2.57.83" transform="translate(18 0)" fill="#fff"/></g><g id="c-87" data-name="c"><path id="t-173" data-name="t" d="M365.14,306.9h-5.4v2.7" transform="translate(18 0)" fill="#fff"/><path id="t-174" data-name="t" d="M365.14,306.9l-4.37,3.18-1.59-2.19" transform="translate(18 0)" fill="#fff"/></g><g id="c-88" data-name="c"><path id="t-175" data-name="t" d="M354.86,306.9l4.37,3.18,1.59-2.19" transform="translate(18 0)" fill="#fff"/><path id="t-176" data-name="t" d="M354.86,306.9h5.4v2.7" transform="translate(18 0)" fill="#fff"/></g><g id="c-89" data-name="c"><path id="t-177" data-name="t" d="M363.17,312.94l-1.66-5.14-2.57.84" transform="translate(18 0)" fill="#fff"/><path id="t-178" data-name="t" d="M363.17,312.94l-4.36-3.17,1.58-2.19" transform="translate(18 0)" fill="#fff"/></g><g id="c-90" data-name="c"><path id="t-179" data-name="t" d="M356.83,312.94l4.36-3.17-1.58-2.19" transform="translate(18 0)" fill="#fff"/><path id="t-180" data-name="t" d="M356.83,312.94l1.66-5.14,2.57.84" transform="translate(18 0)" fill="#fff"/></g></g></g></g><g id="βCru"><g id="star2-7" data-name="star2"><g id="star-19" data-name="star"><g id="c-91" data-name="c"><path id="t-181" data-name="t" d="M374.57,279l-1.39,4.28,2.14.7" transform="translate(18 0)" fill="#fff"/><path id="t-182" data-name="t" d="M374.57,279l1.39,4.28-2.14.7" transform="translate(18 0)" fill="#fff"/></g><g id="c-92" data-name="c"><path id="t-183" data-name="t" d="M378.85,282.15h-4.5v2.25" transform="translate(18 0)" fill="#fff"/><path id="t-184" data-name="t" d="M378.85,282.15l-3.64,2.65L373.89,283" transform="translate(18 0)" fill="#fff"/></g><g id="c-93" data-name="c"><path id="t-185" data-name="t" d="M370.29,282.15l3.64,2.65,1.32-1.82" transform="translate(18 0)" fill="#fff"/><path id="t-186" data-name="t" d="M370.29,282.15h4.5v2.25" transform="translate(18 0)" fill="#fff"/></g><g id="c-94" data-name="c"><path id="t-187" data-name="t" d="M377.22,287.18l-1.39-4.28-2.14.7" transform="translate(18 0)" fill="#fff"/><path id="t-188" data-name="t" d="M377.22,287.18l-3.64-2.64,1.32-1.82" transform="translate(18 0)" fill="#fff"/></g><g id="c-95" data-name="c"><path id="t-189" data-name="t" d="M371.93,287.18l3.64-2.64-1.33-1.82" transform="translate(18 0)" fill="#fff"/><path id="t-190" data-name="t" d="M371.93,287.18l1.39-4.28,2.14.7" transform="translate(18 0)" fill="#fff"/></g></g></g></g><g id="γCru"><g id="star2-8" data-name="star2"><g id="star-20" data-name="star"><g id="c-96" data-name="c"><path id="t-191" data-name="t" d="M360,267.73,358.61,272l2.14.69" transform="translate(18 0)" fill="#fff"/><path id="t-192" data-name="t" d="M360,267.73l1.39,4.28-2.14.69" transform="translate(18 0)" fill="#fff"/></g><g id="c-97" data-name="c"><path id="t-193" data-name="t" d="M364.28,270.84h-4.5v2.25" transform="translate(18 0)" fill="#fff"/><path id="t-194" data-name="t" d="M364.28,270.84l-3.64,2.64-1.32-1.82" transform="translate(18 0)" fill="#fff"/></g><g id="c-98" data-name="c"><path id="t-195" data-name="t" d="M355.72,270.84l3.64,2.64,1.32-1.82" transform="translate(18 0)" fill="#fff"/><path id="t-196" data-name="t" d="M355.72,270.84h4.5v2.25" transform="translate(18 0)" fill="#fff"/></g><g id="c-99" data-name="c"><path id="t-197" data-name="t" d="M362.65,275.87l-1.4-4.28-2.14.69" transform="translate(18 0)" fill="#fff"/><path id="t-198" data-name="t" d="M362.65,275.87,359,273.22l1.33-1.82" transform="translate(18 0)" fill="#fff"/></g><g id="c-100" data-name="c"><path id="t-199" data-name="t" d="M357.35,275.87l3.65-2.65-1.33-1.82" transform="translate(18 0)" fill="#fff"/><path id="t-200" data-name="t" d="M357.35,275.87l1.4-4.28,2.14.69" transform="translate(18 0)" fill="#fff"/></g></g></g></g><g id="δCru"><g id="star3-7" data-name="star3"><g id="star-21" data-name="star"><g id="c-101" data-name="c"><path id="t-201" data-name="t" d="M347.31,279.94l-1.11,3.43,1.71.55" transform="translate(18 0)" fill="#fff"/><path id="t-202" data-name="t" d="M347.31,279.94l1.12,3.43-1.72.55" transform="translate(18 0)" fill="#fff"/></g><g id="c-102" data-name="c"><path id="t-203" data-name="t" d="M350.74,282.43h-3.6v1.8" transform="translate(18 0)" fill="#fff"/><path id="t-204" data-name="t" d="M350.74,282.43l-2.91,2.12-1.06-1.46" transform="translate(18 0)" fill="#fff"/></g><g id="c-103" data-name="c"><path id="t-205" data-name="t" d="M343.89,282.43l2.91,2.12,1.06-1.46" transform="translate(18 0)" fill="#fff"/><path id="t-206" data-name="t" d="M343.89,282.43h3.6v1.8" transform="translate(18 0)" fill="#fff"/></g><g id="c-104" data-name="c"><path id="t-207" data-name="t" d="M349.43,286.46,348.32,283l-1.71.56" transform="translate(18 0)" fill="#fff"/><path id="t-208" data-name="t" d="M349.43,286.46l-2.91-2.12,1.06-1.46" transform="translate(18 0)" fill="#fff"/></g><g id="c-105" data-name="c"><path id="t-209" data-name="t" d="M345.2,286.46l2.91-2.12-1.06-1.46" transform="translate(18 0)" fill="#fff"/><path id="t-210" data-name="t" d="M345.2,286.46l1.11-3.43,1.71.56" transform="translate(18 0)" fill="#fff"/></g></g></g></g><g id="εCru"><g id="star4-2" data-name="star4"><g id="star-22" data-name="star"><g id="c-106" data-name="c"><path id="t-211" data-name="t" d="M353.66,289.71l-.8,2.45,1.23.4" transform="translate(18 0)" fill="#fff"/><path id="t-212" data-name="t" d="M353.66,289.71l.79,2.45-1.22.4" transform="translate(18 0)" fill="#fff"/></g><g id="c-107" data-name="c"><path id="t-213" data-name="t" d="M356.1,291.49h-2.57v1.29" transform="translate(18 0)" fill="#fff"/><path id="t-214" data-name="t" d="M356.1,291.49,354,293l-.75-1" transform="translate(18 0)" fill="#fff"/></g><g id="c-108" data-name="c"><path id="t-215" data-name="t" d="M351.21,291.49l2.08,1.51.76-1" transform="translate(18 0)" fill="#fff"/><path id="t-216" data-name="t" d="M351.21,291.49h2.57v1.29" transform="translate(18 0)" fill="#fff"/></g><g id="c-109" data-name="c"><path id="t-217" data-name="t" d="M355.17,294.37l-.8-2.45-1.22.4" transform="translate(18 0)" fill="#fff"/><path id="t-218" data-name="t" d="M355.17,294.37l-2.08-1.52.75-1" transform="translate(18 0)" fill="#fff"/></g><g id="c-110" data-name="c"><path id="t-219" data-name="t" d="M352.15,294.37l2.08-1.52-.76-1" transform="translate(18 0)" fill="#fff"/><path id="t-220" data-name="t" d="M352.15,294.37l.79-2.45,1.22.4" transform="translate(18 0)" fill="#fff"/></g></g></g></g><g id="αTrA"><g id="star2-9" data-name="star2"><g id="star-23" data-name="star"><g id="c-111" data-name="c"><path id="t-221" data-name="t" d="M397.71,332.36l-1.39,4.28,2.14.69" transform="translate(18 0)" fill="#fff"/><path id="t-222" data-name="t" d="M397.71,332.36l1.39,4.28-2.14.69" transform="translate(18 0)" fill="#fff"/></g><g id="c-112" data-name="c"><path id="t-223" data-name="t" d="M402,335.47h-4.5v2.25" transform="translate(18 0)" fill="#fff"/><path id="t-224" data-name="t" d="M402,335.47l-3.64,2.64L397,336.29" transform="translate(18 0)" fill="#fff"/></g><g id="c-113" data-name="c"><path id="t-225" data-name="t" d="M393.43,335.47l3.65,2.64,1.32-1.82" transform="translate(18 0)" fill="#fff"/><path id="t-226" data-name="t" d="M393.43,335.47h4.5v2.25" transform="translate(18 0)" fill="#fff"/></g><g id="c-114" data-name="c"><path id="t-227" data-name="t" d="M400.36,340.5,399,336.22l-2.14.69" transform="translate(18 0)" fill="#fff"/><path id="t-228" data-name="t" d="M400.36,340.5l-3.64-2.65L398,336" transform="translate(18 0)" fill="#fff"/></g><g id="c-115" data-name="c"><path id="t-229" data-name="t" d="M395.07,340.5l3.64-2.65L397.39,336" transform="translate(18 0)" fill="#fff"/><path id="t-230" data-name="t" d="M395.07,340.5l1.39-4.28,2.14.69" transform="translate(18 0)" fill="#fff"/></g></g></g></g><g id="βTrA"><g id="star3-8" data-name="star3"><g id="star-24" data-name="star"><g id="c-116" data-name="c"><path id="t-231" data-name="t" d="M408.51,322.11l-1.11,3.43,1.71.55" transform="translate(18 0)" fill="#fff"/><path id="t-232" data-name="t" d="M408.51,322.11l1.12,3.43-1.72.55" transform="translate(18 0)" fill="#fff"/></g><g id="c-117" data-name="c"><path id="t-233" data-name="t" d="M411.94,324.6h-3.6v1.8" transform="translate(18 0)" fill="#fff"/><path id="t-234" data-name="t" d="M411.94,324.6,409,326.72,408,325.26" transform="translate(18 0)" fill="#fff"/></g><g id="c-118" data-name="c"><path id="t-235" data-name="t" d="M405.09,324.6l2.91,2.12,1.06-1.46" transform="translate(18 0)" fill="#fff"/><path id="t-236" data-name="t" d="M405.09,324.6h3.6v1.8" transform="translate(18 0)" fill="#fff"/></g><g id="c-119" data-name="c"><path id="t-237" data-name="t" d="M410.63,328.63l-1.11-3.43-1.71.56" transform="translate(18 0)" fill="#fff"/><path id="t-238" data-name="t" d="M410.63,328.63l-2.91-2.12,1.06-1.46" transform="translate(18 0)" fill="#fff"/></g><g id="c-120" data-name="c"><path id="t-239" data-name="t" d="M406.4,328.63l2.91-2.12-1.06-1.46" transform="translate(18 0)" fill="#fff"/><path id="t-240" data-name="t" d="M406.4,328.63l1.11-3.43,1.71.56" transform="translate(18 0)" fill="#fff"/></g></g></g></g><g id="γTrA"><g id="star3-9" data-name="star3"><g id="star-25" data-name="star"><g id="c-121" data-name="c"><path id="t-241" data-name="t" d="M387.77,319l-1.11,3.42,1.71.56" transform="translate(18 0)" fill="#fff"/><path id="t-242" data-name="t" d="M387.77,319l1.11,3.42-1.71.56" transform="translate(18 0)" fill="#fff"/></g><g id="c-122" data-name="c"><path id="t-243" data-name="t" d="M391.2,321.52h-3.6v1.8" transform="translate(18 0)" fill="#fff"/><path id="t-244" data-name="t" d="M391.2,321.52l-2.92,2.11-1.06-1.45" transform="translate(18 0)" fill="#fff"/></g><g id="c-123" data-name="c"><path id="t-245" data-name="t" d="M384.35,321.52l2.91,2.11,1.06-1.45" transform="translate(18 0)" fill="#fff"/><path id="t-246" data-name="t" d="M384.35,321.52H388v1.8" transform="translate(18 0)" fill="#fff"/></g><g id="c-124" data-name="c"><path id="t-247" data-name="t" d="M389.89,325.54l-1.12-3.42-1.71.55" transform="translate(18 0)" fill="#fff"/><path id="t-248" data-name="t" d="M389.89,325.54,387,323.43,388,322" transform="translate(18 0)" fill="#fff"/></g><g id="c-125" data-name="c"><path id="t-249" data-name="t" d="M385.66,325.54l2.91-2.11L387.51,322" transform="translate(18 0)" fill="#fff"/><path id="t-250" data-name="t" d="M385.66,325.54l1.11-3.42,1.71.55" transform="translate(18 0)" fill="#fff"/></g></g></g></g><g id="αCar"><g id="star1-6" data-name="star1"><g id="star-26" data-name="star"><g id="c-126" data-name="c"><path id="t-251" data-name="t" d="M309.43,313.46l-1.67,5.13,2.57.84" transform="translate(18 0)" fill="#fff"/><path id="t-252" data-name="t" d="M309.43,313.46l1.67,5.13-2.57.84" transform="translate(18 0)" fill="#fff"/></g><g id="c-127" data-name="c"><path id="t-253" data-name="t" d="M314.56,317.19h-5.4v2.7" transform="translate(18 0)" fill="#fff"/><path id="t-254" data-name="t" d="M314.56,317.19l-4.36,3.17-1.59-2.18" transform="translate(18 0)" fill="#fff"/></g><g id="c-128" data-name="c"><path id="t-255" data-name="t" d="M304.29,317.19l4.37,3.17,1.59-2.18" transform="translate(18 0)" fill="#fff"/><path id="t-256" data-name="t" d="M304.29,317.19h5.4v2.7" transform="translate(18 0)" fill="#fff"/></g><g id="c-129" data-name="c"><path id="t-257" data-name="t" d="M312.6,323.23l-1.67-5.14-2.56.83" transform="translate(18 0)" fill="#fff"/><path id="t-258" data-name="t" d="M312.6,323.23l-4.37-3.18,1.59-2.18" transform="translate(18 0)" fill="#fff"/></g><g id="c-130" data-name="c"><path id="t-259" data-name="t" d="M306.25,323.23l4.37-3.18L309,317.87" transform="translate(18 0)" fill="#fff"/><path id="t-260" data-name="t" d="M306.25,323.23l1.67-5.14,2.57.83" transform="translate(18 0)" fill="#fff"/></g></g></g></g><g id="σOct"><g id="star5"><g id="star-27" data-name="star"><g id="c-131" data-name="c"><path id="t-261" data-name="t" d="M360,348.77l-.56,1.71.86.28" transform="translate(18 0)" fill="#fff"/><path id="t-262" data-name="t" d="M360,348.77l.56,1.71-.86.28" transform="translate(18 0)" fill="#fff"/></g><g id="c-132" data-name="c"><path id="t-263" data-name="t" d="M361.71,350h-1.8v.9" transform="translate(18 0)" fill="#fff"/><path id="t-264" data-name="t" d="M361.71,350l-1.45,1.05-.53-.72" transform="translate(18 0)" fill="#fff"/></g><g id="c-133" data-name="c"><path id="t-265" data-name="t" d="M358.29,350l1.45,1.05.53-.72" transform="translate(18 0)" fill="#fff"/><path id="t-266" data-name="t" d="M358.29,350h1.8v.9" transform="translate(18 0)" fill="#fff"/></g><g id="c-134" data-name="c"><path id="t-267" data-name="t" d="M361.06,352l-.56-1.71-.85.27" transform="translate(18 0)" fill="#fff"/><path id="t-268" data-name="t" d="M361.06,352,359.6,351l.53-.73" transform="translate(18 0)" fill="#fff"/></g><g id="c-135" data-name="c"><path id="t-269" data-name="t" d="M358.94,352,360.4,351l-.53-.73" transform="translate(18 0)" fill="#fff"/><path id="t-270" data-name="t" d="M358.94,352l.56-1.71.85.27" transform="translate(18 0)" fill="#fff"/></g></g></g></g></svg>